<svg id="my-svg" width="100%" xmlns="http://www.w3.org/2000/svg" xmlns:xlink="http://www.w3.org/1999/xlink" style="max-width: 2938.74px; background-color: white;" viewBox="-1423.3685302734375 -648.2500610351562 2938.737060546875 1427.5001220703125" role="graphics-document document" aria-roledescription="architecture"><style>#my-svg{font-family:"trebuchet ms",verdana,arial,sans-serif;font-size:16px;fill:#333;}@keyframes edge-animation-frame{from{stroke-dashoffset:0;}}@keyframes dash{to{stroke-dashoffset:0;}}#my-svg .edge-animation-slow{stroke-dasharray:9,5!important;stroke-dashoffset:900;animation:dash 50s linear infinite;stroke-linecap:round;}#my-svg .edge-animation-fast{stroke-dasharray:9,5!important;stroke-dashoffset:900;animation:dash 20s linear infinite;stroke-linecap:round;}#my-svg .error-icon{fill:#552222;}#my-svg .error-text{fill:#552222;stroke:#552222;}#my-svg .edge-thickness-normal{stroke-width:1px;}#my-svg .edge-thickness-thick{stroke-width:3.5px;}#my-svg .edge-pattern-solid{stroke-dasharray:0;}#my-svg .edge-thickness-invisible{stroke-width:0;fill:none;}#my-svg .edge-pattern-dashed{stroke-dasharray:3;}#my-svg .edge-pattern-dotted{stroke-dasharray:2;}#my-svg .marker{fill:#333333;stroke:#333333;}#my-svg .marker.cross{stroke:#333333;}#my-svg svg{font-family:"trebuchet ms",verdana,arial,sans-serif;font-size:16px;}#my-svg p{margin:0;}#my-svg .edge{stroke-width:3;stroke:#333333;fill:none;}#my-svg .arrow{fill:#333333;}#my-svg .node-bkg{fill:none;stroke:hsl(240, 60%, 86.2745098039%);stroke-width:2px;stroke-dasharray:8;}#my-svg .node-icon-text{display:flex;align-items:center;}#my-svg .node-icon-text&gt;div{color:#fff;margin:1px;height:fit-content;text-align:center;overflow:hidden;display:-webkit-box;-webkit-box-orient:vertical;}#my-svg .node .neo-node{stroke:#9370DB;}#my-svg [data-look="neo"].node rect,#my-svg [data-look="neo"].cluster rect,#my-svg [data-look="neo"].node polygon{stroke:#9370DB;filter:drop-shadow(1px 2px 2px rgba(185, 185, 185, 1));}#my-svg [data-look="neo"].node path{stroke:#9370DB;stroke-width:1px;}#my-svg [data-look="neo"].node .outer-path{filter:drop-shadow(1px 2px 2px rgba(185, 185, 185, 1));}#my-svg [data-look="neo"].node .neo-line path{stroke:#9370DB;filter:none;}#my-svg [data-look="neo"].node circle{stroke:#9370DB;filter:drop-shadow(1px 2px 2px rgba(185, 185, 185, 1));}#my-svg [data-look="neo"].node circle .state-start{fill:#000000;}#my-svg [data-look="neo"].icon-shape .icon{fill:#9370DB;filter:drop-shadow(1px 2px 2px rgba(185, 185, 185, 1));}#my-svg [data-look="neo"].icon-shape .icon-neo path{stroke:#9370DB;filter:drop-shadow(1px 2px 2px rgba(185, 185, 185, 1));}#my-svg :root{--mermaid-font-family:"trebuchet ms",verdana,arial,sans-serif;}</style><g/><g class="architecture-edges"><g><path d="M -1286.3684980165967,-485.75008326588716 L -1286.3684980165967,-424.0830902934281 L-1286.3684980165967,-362.416097320969" class="edge" id="my-svg-L_user_cloudfront_0"/><polygon points="0,0 13.333333333333334,0 6.666666666666667,13.333333333333334" transform="translate(-1293.0351646832635,-373.74943065430233)" class="arrow"/></g><g><path d="M -1286.3684980165967,-282.416097320969 L -1286.3684980165967,-219.05428656438926 L-1286.3684980165967,-155.69247580780947" class="edge" id="my-svg-L_cloudfront_s3ui_0"/><polygon points="0,0 13.333333333333334,0 6.666666666666667,13.333333333333334" transform="translate(-1293.0351646832635,-167.02580914114282)" class="arrow"/></g><g><path d="M -1246.3684980165967,-322.416097320969 L -1140.8542318349987,-322.416097320969 L-1035.339965653401,-322.416097320969" class="edge" id="my-svg-L_cloudfront_cognito_0"/><polygon points="13.333333333333334,6.666666666666667 0,13.333333333333334 0,0" transform="translate(-1046.6732989867342,-329.0827639876357)" class="arrow"/></g><g><path d="M -955.3399656534009,-322.416097320969 L -890.3786322094211,-322.416097320969 L-825.4172987654413,-322.416097320969" class="edge" id="my-svg-L_cognito_apigw_0"/><polygon points="13.333333333333334,6.666666666666667 0,13.333333333333334 0,0" transform="translate(-836.7506320987746,-329.0827639876357)" class="arrow"/></g><g><path d="M -745.4172987654413,-322.416097320969 L -676.1704439884182,-322.416097320969 L-606.9235892113951,-322.416097320969" class="edge" id="my-svg-L_apigw_api-lambda_0"/><polygon points="13.333333333333334,6.666666666666667 0,13.333333333333334 0,0" transform="translate(-618.2569225447285,-329.0827639876357)" class="arrow"/></g><g><path d="M -566.9235892113951,-362.416097320969 L -566.9235892113951,-424.0830902934281 L-566.9235892113951,-485.75008326588716" class="edge" id="my-svg-L_api-lambda_ddb-apikeys_0"/><polygon points="6.666666666666667,0 13.333333333333334,13.333333333333334 0,13.333333333333334" transform="translate(-573.5902558780617,-487.75008326588716)" class="arrow"/></g><g><path d="M -526.9235892113951,-322.416097320969 L -458.80451103783156,-322.416097320969 L-390.685432864268,-322.416097320969" class="edge" id="my-svg-L_api-lambda_ddb-audit_0"/><polygon points="13.333333333333334,6.666666666666667 0,13.333333333333334 0,0" transform="translate(-402.01876619760134,-329.0827639876357)" class="arrow"/></g><g><path d="M -566.9235892113951,-282.416097320969 L -566.9235892113951,-114.54795364791386 L-566.9235892113951,53.3201900251413" class="edge" id="my-svg-L_api-lambda_s3input_0"/><polygon points="0,0 13.333333333333334,0 6.666666666666667,13.333333333333334" transform="translate(-573.5902558780617,41.986856691807965)" class="arrow"/></g><g><path d="M -526.9235892113951,93.32019002514127 L -458.80451103783156,93.32019002514127 L-390.685432864268,93.32019002514127" class="edge" id="my-svg-L_s3input_eventbridge1_0"/><polygon points="13.333333333333334,6.666666666666667 0,13.333333333333334 0,0" transform="translate(-402.01876619760134,86.6535233584746)" class="arrow"/></g><g><path d="M -310.685432864268,93.32019002514127 L -232.8796569612564,93.32019002514127 L-155.0738810582447,93.32019002514127" class="edge" id="my-svg-L_eventbridge1_document-processor_0"/><polygon points="13.333333333333334,6.666666666666667 0,13.333333333333334 0,0" transform="translate(-166.40721439157804,86.6535233584746)" class="arrow"/></g><g><path d="M -115.0738810582447,53.32019002514127 L -115.0738810582447,-7.173289543110286 L-115.0738810582447,-67.66676911136184" class="edge" id="my-svg-L_document-processor_bedrock-preclassify_0"/><polygon points="6.666666666666667,0 13.333333333333334,13.333333333333334 0,13.333333333333334" transform="translate(-121.74054772491137,-69.66676911136184)" class="arrow"/></g><g><path d="M -75.0738810582447,93.32019002514127 L -12.0635058485787,93.32019002514127 L50.946869361087295,93.32019002514127" class="edge" id="my-svg-L_document-processor_ddb_0"/><polygon points="13.333333333333334,6.666666666666667 0,13.333333333333334 0,0" transform="translate(39.61353602775396,86.6535233584746)" class="arrow"/></g><g><path d="M -115.0738810582447,133.32019002514127 L -115.0738810582447,171.0092689020483 L-115.0738810582447,248.69834777895528" class="edge" id="my-svg-L_document-processor_processing-junc1_0"/></g><g><path d="M -115.0738810582447,248.69834777895528 L -115.0738810582447,308.6983477789553 L-115.0738810582447,328.6983477789553" class="edge" id="my-svg-L_processing-junc1_bedrock_0"/><polygon points="0,0 13.333333333333334,0 6.666666666666667,13.333333333333334" transform="translate(-121.74054772491137,317.36501444562197)" class="arrow"/></g><g><path d="M -75.0738810582447,368.6983477789553 L -16.8722705323417,368.6983477789553 L41.32933999356129,368.6983477789553" class="edge" id="my-svg-L_bedrock_s3output_0"/><polygon points="13.333333333333334,6.666666666666667 0,13.333333333333334 0,0" transform="translate(29.996006660227955,362.0316811122886)" class="arrow"/></g><g><path d="M 121.3293399935613,368.6983477789553 L 178.65565950527414,368.6983477789553 L235.981979016987,368.6983477789553" class="edge" id="my-svg-L_s3output_eventbridge2_0"/><polygon points="13.333333333333334,6.666666666666667 0,13.333333333333334 0,0" transform="translate(224.64864568365365,362.0316811122886)" class="arrow"/></g><g><path d="M 315.981979016987,368.6983477789553 L 372.6009587348626,368.6983477789553 L429.2199384527383,368.6983477789553" class="edge" id="my-svg-L_eventbridge2_bda-result-processor_0"/><polygon points="13.333333333333334,6.666666666666667 0,13.333333333333334 0,0" transform="translate(417.886605119405,362.0316811122886)" class="arrow"/></g><g><path d="M 509.2199384527383,368.6983477789553 L 570.1446132631072,368.6983477789553 L631.0692880734761,368.6983477789553" class="edge" id="my-svg-L_bda-result-processor_ddb2_0"/><polygon points="13.333333333333334,6.666666666666667 0,13.333333333333334 0,0" transform="translate(619.7359547401427,362.0316811122886)" class="arrow"/></g><g><path d="M 469.2199384527383,408.6983477789553 L 469.2199384527383,444.1897917044727 L469.2199384527383,519.6812356299902" class="edge" id="my-svg-L_bda-result-processor_extract-junc1_0"/></g><g><path d="M 469.2199384527383,519.6812356299902 L 469.2199384527383,579.7156594479386 L469.2199384527383,599.7500832658872" class="edge" id="my-svg-L_extract-junc1_sqs_0"/><polygon points="0,0 13.333333333333334,0 6.666666666666667,13.333333333333334" transform="translate(462.5532717860716,588.4167499325538)" class="arrow"/></g><g><path d="M 509.2199384527383,639.7500832658872 L 556.7456770745629,639.7500832658872 L604.2714156963875,639.7500832658872" class="edge" id="my-svg-L_sqs_metrics-processor_0"/><polygon points="13.333333333333334,6.666666666666667 0,13.333333333333334 0,0" transform="translate(592.9380823630541,633.0834165992205)" class="arrow"/></g><g><path d="M 684.2714156963875,639.7500832658872 L 731.7794728213776,639.7500832658872 L779.2875299463676,639.7500832658872" class="edge" id="my-svg-L_metrics-processor_s3metrics_0"/><polygon points="13.333333333333334,6.666666666666667 0,13.333333333333334 0,0" transform="translate(767.9541966130342,633.0834165992205)" class="arrow"/></g><g><path d="M 859.2875299463676,639.7500832658872 L 908.2489674178887,639.7500832658872 L957.21040488941,639.7500832658872" class="edge" id="my-svg-L_s3metrics_glue_0"/><polygon points="13.333333333333334,6.666666666666667 0,13.333333333333334 0,0" transform="translate(945.8770715560767,633.0834165992205)" class="arrow"/></g><g><path d="M 1037.21040488941,639.7500832658872 L 1089.0220128371107,639.7500832658872 L1140.833620784811,639.7500832658872" class="edge" id="my-svg-L_glue_metrics-aggregator_0"/><polygon points="13.333333333333334,6.666666666666667 0,13.333333333333334 0,0" transform="translate(1129.5002874514778,633.0834165992205)" class="arrow"/></g><g><path d="M 1220.833620784811,639.7500832658872 L 1276.601059400704,639.7500832658872 L1332.3684980165967,639.7500832658872" class="edge" id="my-svg-L_metrics-aggregator_s3aggregated_0"/><polygon points="13.333333333333334,6.666666666666667 0,13.333333333333334 0,0" transform="translate(1321.0351646832635,633.0834165992205)" class="arrow"/></g></g><g class="architecture-services"><g id="my-svg-service-user" class="architecture-service" transform="translate(-1326.3684980165967,-565.7500832658872)"><g dy="1em" alignment-baseline="middle" dominant-baseline="middle" text-anchor="middle" transform="translate(40, 80)"><g><rect class="background" style="stroke: none"/><text y="-10.1" style=""><tspan class="text-outer-tspan row" x="0" y="-0.1em" dy="1.1em"><tspan font-style="normal" class="text-inner-tspan" font-weight="normal">Admin</tspan><tspan font-style="normal" class="text-inner-tspan" font-weight="normal"> User</tspan></tspan></text></g></g><g><g><svg xmlns="http://www.w3.org/2000/svg" width="80" height="80" viewBox="0 0 24 24"><path fill="currentColor" d="m16 21l-.3-1.5q-.3-.125-.562-.262T14.6 18.9l-1.45.45l-1-1.7l1.15-1q-.05-.35-.05-.65t.05-.65l-1.15-1l1-1.7l1.45.45q.275-.2.538-.337t.562-.263L16 11h2l.3 1.5q.3.125.563.275t.537.375l1.45-.5l1 1.75l-1.15 1q.05.3.05.625t-.05.625l1.15 1l-1 1.7l-1.45-.45q-.275.2-.537.338t-.563.262L18 21zM2 20v-2.8q0-.825.425-1.55t1.175-1.1q1.275-.65 2.875-1.1T10 13h.35q.15 0 .3.05q-.725 1.8-.6 3.575T11.25 20zm16.413-2.588Q19 16.826 19 16t-.587-1.412T17 14t-1.412.588T15 16t.588 1.413T17 18t1.413-.587M7.175 10.825Q6 9.65 6 8t1.175-2.825T10 4t2.825 1.175T14 8t-1.175 2.825T10 12t-2.825-1.175"/></svg></g></g></g><g id="my-svg-service-cloudfront" class="architecture-service" transform="translate(-1326.3684980165967,-362.416097320969)"><g dy="1em" alignment-baseline="middle" dominant-baseline="middle" text-anchor="middle" transform="translate(40, 80)"><g><rect class="background" style="stroke: none"/><text y="-10.1" style=""><tspan class="text-outer-tspan row" x="0" y="-0.1em" dy="1.1em"><tspan font-style="normal" class="text-inner-tspan" font-weight="normal">CloudFront</tspan></tspan></text></g></g><g><g><svg xmlns="http://www.w3.org/2000/svg" width="80" height="80" viewBox="0 0 256 256"><defs><linearGradient id="IconifyId19ed8b609f268ea2c0" x1="0%" x2="100%" y1="100%" y2="0%"><stop offset="0%" stop-color="#4d27a8"/><stop offset="100%" stop-color="#a166ff"/></linearGradient></defs><path fill="url(#IconifyId19ed8b609f268ea2c0)" d="M0 0h256v256H0z"/><path fill="#fff" d="M176.39 166.794c0-5.293-4.307-9.6-9.6-9.6s-9.6 4.307-9.6 9.6s4.308 9.6 9.6 9.6c5.293 0 9.6-4.308 9.6-9.6m6.4 0c0 8.822-7.177 16-16 16c-8.822 0-16-7.178-16-16c0-8.823 7.178-16 16-16c8.823 0 16 7.177 16 16m-85.536-46.18c0-5.292-4.307-9.6-9.6-9.6c-5.296 0-9.6 4.308-9.6 9.6c0 5.293 4.304 9.6 9.6 9.6c5.293 0 9.6-4.307 9.6-9.6m6.4 0c0 8.823-7.18 16-16 16c-8.822 0-16-7.177-16-16c0-8.822 7.178-16 16-16c8.82 0 16 7.178 16 16m23.482-50.192c0 5.293 4.307 9.6 9.6 9.6c5.296 0 9.6-4.307 9.6-9.6c0-5.296-4.304-9.6-9.6-9.6c-5.293 0-9.6 4.304-9.6 9.6m-6.4 0c0-8.822 7.18-16 16-16c8.822 0 16 7.178 16 16c0 8.823-7.178 16-16 16c-8.82 0-16-7.177-16-16M211.2 128c0-29.674-15.91-57.126-41.562-71.971c-4.598.928-9.046 2.198-14.595 4.205l-2.176-6.02a131 131 0 0 1 7.984-2.61A83 83 0 0 0 128 44.8c-5.405 0-10.723.56-15.92 1.574c3.763 2.202 7.1 4.397 10.342 6.855l-3.868 5.097c-4.57-3.462-9.306-6.396-15.524-9.654c-31.42 9.882-54.05 37.594-57.644 70.138c6.588-1.335 12.915-2.061 19.939-2.234l.157 6.397c-7.36.182-13.684.963-20.596 2.483c-.028.848-.086 1.706-.086 2.544c0 27.706 13.706 53.235 36.246 68.63c-4.01-11.939-6.006-23.222-6.006-34.243c0-6.285 1.082-11.446 2.224-16.909c.266-1.264.534-2.55.797-3.884l6.281 1.238c-.268 1.357-.544 2.672-.812 3.962c-1.12 5.35-2.09 9.97-2.09 15.593c0 12.506 2.746 25.437 8.333 39.479c11.9 6.179 24.752 9.334 38.227 9.334c8.82 0 17.427-1.408 25.638-4.115c3.223-6.359 5.613-12.359 7.61-19.248l6.147 1.782a114 114 0 0 1-5.126 14.147c5.165-2.323 10.051-5.196 14.637-8.55c-1.104-2.707-2.288-5.398-3.597-8.02l5.725-2.863c1.113 2.227 2.134 4.505 3.11 6.797C200.656 175.28 211.2 152.512 211.2 128m6.4 0c0 27.926-12.691 53.757-34.813 70.877c-5.478 4.256-11.42 7.789-17.702 10.633c-2.666 1.21-5.38 2.33-8.17 3.27c-9.216 3.198-18.953 4.82-28.915 4.82c-14.72 0-29.338-3.667-42.278-10.605C56.534 191.38 38.4 161.11 38.4 128c0-2.195.058-3.866.189-5.411c2.179-37.389 27.83-69.75 63.814-80.458C110.598 39.658 119.216 38.4 128 38.4c15.386 0 30.525 3.962 43.789 11.453C200.042 65.68 217.6 95.629 217.6 128m-98.195-46.518l-4.205-4.823c-7.174 6.26-12.755 12.906-19.274 22.944l5.37 3.485c6.17-9.507 11.418-15.766 18.109-21.606m-9.725 41.484l-2.08 6.052c14.698 5.046 27.52 13.097 40.349 25.337l4.419-4.63c-13.523-12.9-27.088-21.402-42.688-26.759m42.787-37.628c12.007 18.31 18.768 38.41 20.093 59.744l-6.387.396c-1.258-20.21-7.667-39.264-19.053-56.63z"/></svg></g></g></g><g id="my-svg-service-s3ui" class="architecture-service" transform="translate(-1326.3684980165967,-155.69247580780947)"><g dy="1em" alignment-baseline="middle" dominant-baseline="middle" text-anchor="middle" transform="translate(40, 80)"><g><rect class="background" style="stroke: none"/><text y="-10.1" style=""><tspan class="text-outer-tspan row" x="0" y="-0.1em" dy="1.1em"><tspan font-style="normal" class="text-inner-tspan" font-weight="normal">S3</tspan><tspan font-style="normal" class="text-inner-tspan" font-weight="normal"> Static</tspan><tspan font-style="normal" class="text-inner-tspan" font-weight="normal"> Site</tspan></tspan></text></g></g><g><g><svg xmlns="http://www.w3.org/2000/svg" width="80" height="80" viewBox="0 0 256 256"><defs><linearGradient id="IconifyId19ed8b609f268ea2c1" x1="0%" x2="100%" y1="100%" y2="0%"><stop offset="0%" stop-color="#1b660f"/><stop offset="100%" stop-color="#6cae3e"/></linearGradient></defs><path fill="url(#IconifyId19ed8b609f268ea2c1)" d="M0 0h256v256H0z"/><path fill="#fff" d="m194.675 137.256l1.229-8.652c11.33 6.787 11.478 9.59 11.475 9.667c-.02.016-1.952 1.629-12.704-1.015m-6.218-1.728c-19.584-5.926-46.857-18.438-57.894-23.654c0-.045.013-.086.013-.131c0-4.24-3.45-7.69-7.693-7.69c-4.237 0-7.687 3.45-7.687 7.69s3.45 7.69 7.687 7.69c1.862 0 3.552-.695 4.886-1.8c12.986 6.148 40.048 18.478 59.776 24.302l-7.801 55.059q-.033.225-.032.451c0 4.848-21.463 13.754-56.532 13.754c-35.44 0-57.13-8.906-57.13-13.754q0-.22-.028-.435l-16.3-119.062c14.108 9.712 44.454 14.85 73.478 14.85c28.979 0 59.273-5.12 73.41-14.802zM48 65.528c.23-4.21 24.428-20.73 75.2-20.73c50.764 0 74.966 16.516 75.2 20.73v1.437c-2.784 9.443-34.144 19.434-75.2 19.434c-41.127 0-72.503-10.023-75.2-19.479zm156.8.07c0-11.087-31.79-27.2-81.6-27.2c-49.812 0-81.6 16.113-81.6 27.2l.3 2.414l17.754 129.676c.426 14.503 39.1 19.91 63.526 19.91c30.31 0 62.512-6.969 62.928-19.9l7.668-54.07c4.265 1.02 7.776 1.542 10.595 1.542c3.785 0 6.345-.925 7.897-2.774c1.274-1.517 1.76-3.354 1.396-5.31c-.83-4.428-6.087-9.202-16.794-15.311l7.603-53.639z"/></svg></g></g></g><g id="my-svg-service-cognito" class="architecture-service" transform="translate(-1035.339965653401,-362.416097320969)"><g dy="1em" alignment-baseline="middle" dominant-baseline="middle" text-anchor="middle" transform="translate(40, 80)"><g><rect class="background" style="stroke: none"/><text y="-10.1" style=""><tspan class="text-outer-tspan row" x="0" y="-0.1em" dy="1.1em"><tspan font-style="normal" class="text-inner-tspan" font-weight="normal">Cognito</tspan><tspan font-style="normal" class="text-inner-tspan" font-weight="normal"> User</tspan></tspan><tspan class="text-outer-tspan row" x="0" y="1em" dy="1.1em"><tspan font-style="normal" class="text-inner-tspan" font-weight="normal">Pool</tspan></tspan></text></g></g><g><g><svg xmlns="http://www.w3.org/2000/svg" width="80" height="80" viewBox="0 0 256 256"><defs><linearGradient id="IconifyId19ed8b609f268ea2c2" x1="0%" x2="100%" y1="100%" y2="0%"><stop offset="0%" stop-color="#bd0816"/><stop offset="100%" stop-color="#ff5252"/></linearGradient></defs><path fill="url(#IconifyId19ed8b609f268ea2c2)" d="M0 0h256v256H0z"/><path fill="#fff" d="M54.283 114.585H95.58v-6.344H54.283zm142.119 46.154l4.491 4.485l-23.59 23.556a3.18 3.18 0 0 1-4.491 0l-11.868-11.848l4.491-4.485l9.623 9.605zm14.619 17.481c-.725 5.964-3.152 11.511-7.03 16.048a30.6 30.6 0 0 1-10.058 7.701a30 30 0 0 1-16.506 2.665a30.05 30.05 0 0 1-15.06-6.29c-8.33-6.614-12.535-16.87-11.255-27.436a30.3 30.3 0 0 1 16.185-23.301a29.9 29.9 0 0 1 13.726-3.337c1.223 0 2.456.076 3.685.225c9.962 1.215 18.65 7.302 23.231 16.282a30.24 30.24 0 0 1 3.082 17.443m2.58-20.32c-5.544-10.868-16.059-18.233-28.124-19.702a36.25 36.25 0 0 0-21.096 3.772a36.64 36.64 0 0 0-19.578 28.177c-1.544 12.768 3.542 25.167 13.612 33.164a36.4 36.4 0 0 0 18.24 7.62q2.221.27 4.438.269a36.3 36.3 0 0 0 15.566-3.502a36.9 36.9 0 0 0 12.163-9.313c4.692-5.488 7.634-12.197 8.508-19.404a36.54 36.54 0 0 0-3.73-21.081M86.05 133.618h12.706v-6.344H86.05zm-31.768 0h25.414v-6.344H54.283zM51.54 51.144h142.086c3.742 0 6.786 3.702 6.786 8.25v23.47h-9.53v-15.86a3.173 3.173 0 0 0-3.177-3.172H114.64a3.173 3.173 0 0 0-3.176 3.172v15.86h-66.71v-23.47c0-4.472 3.11-8.25 6.785-8.25m99.68 30.8c7.377 0 13.378 5.933 13.378 13.222c0 4.806-2.653 9.228-6.922 11.543a13.6 13.6 0 0 1-12.939.003c-4.253-2.322-6.893-6.744-6.893-11.546c0-7.29 5.997-13.221 13.377-13.221M44.754 150.748V89.209h66.71v53.925a3.17 3.17 0 0 0 3.177 3.172h33.21v-6.344h-26.532c.276-12.695 8.716-23.66 20.87-27.163c5.617 2.624 12.323 2.65 18.025-.003c6.919 1.999 12.973 6.62 16.725 12.815l5.435-3.286c-3.85-6.347-9.692-11.302-16.467-14.182c3.176-3.521 5.044-8.102 5.044-12.977c0-10.788-8.853-19.565-19.73-19.565c-10.88 0-19.73 8.777-19.73 19.565c0 4.856 1.848 9.421 5.003 12.942a35.17 35.17 0 0 0-18.676 18.525V70.176h66.71v50.753h6.354V89.21h9.53l.003 47.58h6.353l-.003-77.394c0-8.048-5.893-14.595-13.139-14.595H51.54c-7.246 0-13.139 6.547-13.139 14.595v91.352c0 8.047 5.893 14.591 13.139 14.591h85.338v-6.344H51.539c-3.676 0-6.786-3.775-6.786-8.247"/></svg></g></g></g><g id="my-svg-service-apigw" class="architecture-service" transform="translate(-825.4172987654413,-362.416097320969)"><g dy="1em" alignment-baseline="middle" dominant-baseline="middle" text-anchor="middle" transform="translate(40, 80)"><g><rect class="background" style="stroke: none"/><text y="-10.1" style=""><tspan class="text-outer-tspan row" x="0" y="-0.1em" dy="1.1em"><tspan font-style="normal" class="text-inner-tspan" font-weight="normal">API</tspan><tspan font-style="normal" class="text-inner-tspan" font-weight="normal"> Gateway</tspan></tspan></text></g></g><g><g><svg xmlns="http://www.w3.org/2000/svg" width="80" height="80" viewBox="0 0 256 256"><defs><linearGradient id="IconifyId19ed8b609f268ea2c3" x1="0%" x2="100%" y1="100%" y2="0%"><stop offset="0%" stop-color="#b0084d"/><stop offset="100%" stop-color="#ff4f8b"/></linearGradient></defs><path fill="url(#IconifyId19ed8b609f268ea2c3)" d="M0 0h256v256H0z"/><path fill="#fff" d="M109.008 178.024h9.392v-6.455h-9.392zm15.792 0h9.6v-6.455h-9.6zM86.4 46.814L44.8 67.463v128.356l41.6 14.068zm6.4 40.845v83.91h9.6v6.455h-9.6v36.349a3.24 3.24 0 0 1-1.331 2.62a3.18 3.18 0 0 1-2.887.44l-48-16.23a3.23 3.23 0 0 1-2.182-3.06V65.452c0-1.226.694-2.353 1.789-2.895l48-23.824a3.16 3.16 0 0 1 3.1.155a3.23 3.23 0 0 1 1.511 2.74v39.576h9.6v6.455zm48 90.365h9.6v-6.455h-9.6zm.208-90.365h9.392v-6.455h-9.392zm-16 0h9.392v-6.455h-9.392zm-16 0h9.392v-6.455h-9.392zM211.2 67.463l-41.6-20.649v163.073l41.6-14.068zm6.4 130.68a3.23 3.23 0 0 1-2.182 3.06l-48 16.23a3.17 3.17 0 0 1-2.887-.44a3.24 3.24 0 0 1-1.331-2.62v-36.35h-6.192v-6.454h6.192v-83.91h-6.192v-6.455h6.192V41.628c0-1.117.573-2.153 1.51-2.74a3.16 3.16 0 0 1 3.101-.155l48 23.824a3.23 3.23 0 0 1 1.789 2.895zm-80.211-89.962l-5.978-2.317l-16 41.955l5.978 2.317zm21.673 20.487a3.243 3.243 0 0 0 0-4.563l-12.8-12.91l-4.524 4.564l10.537 10.628l-10.537 10.627l4.524 4.564zm-49.324 12.91l-12.8-12.91a3.243 3.243 0 0 1 0-4.563l12.8-12.91l4.524 4.564l-10.537 10.628l10.537 10.627z"/></svg></g></g></g><g id="my-svg-service-api-lambda" class="architecture-service" transform="translate(-606.9235892113951,-362.416097320969)"><g dy="1em" alignment-baseline="middle" dominant-baseline="middle" text-anchor="middle" transform="translate(40, 80)"><g><rect class="background" style="stroke: none"/><text y="-10.1" style=""><tspan class="text-outer-tspan row" x="0" y="-0.1em" dy="1.1em"><tspan font-style="normal" class="text-inner-tspan" font-weight="normal">API</tspan><tspan font-style="normal" class="text-inner-tspan" font-weight="normal"> Lambda</tspan></tspan></text></g></g><g><g><svg xmlns="http://www.w3.org/2000/svg" width="80" height="80" viewBox="0 0 256 256"><defs><linearGradient id="IconifyId19ed8b609f268ea2c4" x1="0%" x2="100%" y1="100%" y2="0%"><stop offset="0%" stop-color="#c8511b"/><stop offset="100%" stop-color="#f90"/></linearGradient></defs><path fill="url(#IconifyId19ed8b609f268ea2c4)" d="M0 0h256v256H0z"/><path fill="#fff" d="M89.624 211.2H49.89l43.945-91.853l19.912 40.992zm7.079-100.63a3.22 3.22 0 0 0-2.887-1.805h-.01a3.2 3.2 0 0 0-2.886 1.82L41.913 213.022a3.203 3.203 0 0 0 2.893 4.58l46.848-.001a3.21 3.21 0 0 0 2.9-1.83l25.65-54.08a3.18 3.18 0 0 0-.016-2.762zM207.985 211.2h-39.477L105.174 78.624a3.21 3.21 0 0 0-2.897-1.824h-25.83l.03-32h50.626l63.042 132.573a3.21 3.21 0 0 0 2.897 1.827h14.943zm3.208-38.4h-16.121L132.03 40.227a3.21 3.21 0 0 0-2.9-1.827H73.273a3.206 3.206 0 0 0-3.208 3.197l-.035 38.4c0 .851.333 1.664.94 2.265c.6.602 1.414.938 2.267.938h27.017l63.337 132.576a3.2 3.2 0 0 0 2.893 1.824h44.709a3.203 3.203 0 0 0 3.207-3.2V176c0-1.766-1.434-3.2-3.207-3.2"/></svg></g></g></g><g id="my-svg-service-ddb-apikeys" class="architecture-service" transform="translate(-606.9235892113951,-565.7500832658872)"><g dy="1em" alignment-baseline="middle" dominant-baseline="middle" text-anchor="middle" transform="translate(40, 80)"><g><rect class="background" style="stroke: none"/><text y="-10.1" style=""><tspan class="text-outer-tspan row" x="0" y="-0.1em" dy="1.1em"><tspan font-style="normal" class="text-inner-tspan" font-weight="normal">API</tspan><tspan font-style="normal" class="text-inner-tspan" font-weight="normal"> Keys</tspan></tspan></text></g></g><g><g><svg xmlns="http://www.w3.org/2000/svg" width="80" height="80" viewBox="0 0 256 256"><defs><linearGradient id="IconifyId19ed8b609f268ea2c5" x1="0%" x2="100%" y1="100%" y2="0%"><stop offset="0%" stop-color="#2e27ad"/><stop offset="100%" stop-color="#527fff"/></linearGradient></defs><path fill="url(#IconifyId19ed8b609f268ea2c5)" d="M0 0h256v256H0z"/><path fill="#fff" d="M166.675 175.52c-10.682 8.637-33.091 13.2-54.534 13.2c-21.447 0-43.863-4.566-54.541-13.202v17.392h.003c0 8.675 22.397 18.342 54.538 18.342c32.115 0 54.499-9.655 54.534-18.323zm.003-33.049l6.4-.035v.035c0 3.866-1.936 7.475-5.705 10.779c4.57 4.021 5.705 7.966 5.705 10.775c0 .02-.003.035-.003.054v28.831h.003c0 16.035-31.398 24.69-60.937 24.69c-29.469 0-60.781-8.617-60.931-24.578c0-.016-.01-.032-.01-.048v-28.958c0-.007.006-.016.006-.026c.01-2.809 1.15-6.738 5.712-10.75c-4.534-4.005-5.686-7.912-5.715-10.699h.003c0-.013-.006-.022-.006-.035v-28.958c0-.01.006-.02.006-.029c.01-2.809 1.152-6.738 5.716-10.743c-4.538-4.009-5.69-7.92-5.719-10.703h.003c0-.012-.006-.025-.006-.038V63.08c0-.01.006-.019.006-.029C51.261 47.04 82.624 38.4 112.141 38.4c16.675 0 32.694 2.65 43.948 7.271l-2.448 5.866c-10.505-4.314-25.632-6.79-41.5-6.79c-32.141 0-54.538 9.668-54.538 18.349c0 8.677 22.397 18.345 54.538 18.345c.867.01 1.715 0 2.573-.032l.268 6.342c-.947.038-1.894.038-2.841.038c-21.447 0-43.863-4.568-54.541-13.204V91.97h.003v.073c.032 3.329 3.447 6.236 6.307 8.083c8.608 5.488 24.032 9.236 41.232 10.014l-.29 6.341c-17.425-.79-32.682-4.405-42.503-9.946c-2.42 1.809-4.746 4.256-4.746 7.03c0 8.677 22.397 18.345 54.538 18.345c3.152 0 6.281-.105 9.305-.315l.445 6.332c-3.168.22-6.451.33-9.75.33c-21.447 0-43.863-4.567-54.541-13.203v17.383h.003c.032 3.403 3.447 6.307 6.307 8.157c9.844 6.281 28.327 10.192 48.23 10.192h1.409v6.347h-1.408c-20.221 0-38.599-3.754-49.837-10.099c-2.406 1.806-4.7 4.24-4.7 6.992c0 8.677 22.396 18.348 54.537 18.348c32.115 0 54.499-9.655 54.534-18.326v-.035c-.006-2.758-2.31-5.192-4.723-6.998a45 45 0 0 1-5.14 2.523l-2.45-5.865c2.323-.955 4.339-1.987 5.993-3.072c2.886-1.883 6.323-4.825 6.323-8.129m27.411-46.418h-17.932c-1.06 0-2.055-.52-2.647-1.39a3.14 3.14 0 0 1-.33-2.951l10.91-27.27h-41.31l-19.2 38.086h20.423c1.02 0 1.98.486 2.586 1.301c.598.82.774 1.87.464 2.838l-18.228 56.818zm9.821-.974l-79.996 82.648a3.22 3.22 0 0 1-2.31.974a3.2 3.2 0 0 1-1.636-.444a3.16 3.16 0 0 1-1.414-3.692l21.075-65.69h-21.226a3.21 3.21 0 0 1-2.723-1.504a3.15 3.15 0 0 1-.138-3.088l22.4-44.434a3.2 3.2 0 0 1 2.861-1.755h48a3.21 3.21 0 0 1 2.646 1.39a3.15 3.15 0 0 1 .33 2.955L180.87 89.706h20.73c1.28 0 2.441.761 2.944 1.93a3.16 3.16 0 0 1-.634 3.443M62.256 194.158c4.534 2.555 10.243 4.703 16.966 6.38l1.562-6.158c-6.077-1.514-11.389-3.5-15.366-5.742zm16.966-44.403l1.562-6.154c-6.077-1.517-11.389-3.504-15.366-5.745l-3.162 5.52c4.534 2.555 10.24 4.704 16.966 6.38M62.256 92.594l3.162-5.52c3.97 2.241 9.286 4.225 15.366 5.745l-1.562 6.154c-6.732-1.679-12.438-3.827-16.966-6.38"/></svg></g></g></g><g id="my-svg-service-ddb-audit" class="architecture-service" transform="translate(-390.685432864268,-362.416097320969)"><g dy="1em" alignment-baseline="middle" dominant-baseline="middle" text-anchor="middle" transform="translate(40, 80)"><g><rect class="background" style="stroke: none"/><text y="-10.1" style=""><tspan class="text-outer-tspan row" x="0" y="-0.1em" dy="1.1em"><tspan font-style="normal" class="text-inner-tspan" font-weight="normal">Audit</tspan><tspan font-style="normal" class="text-inner-tspan" font-weight="normal"> Events</tspan></tspan></text></g></g><g><g><svg xmlns="http://www.w3.org/2000/svg" width="80" height="80" viewBox="0 0 256 256"><defs><linearGradient id="IconifyId19ed8b609f268ea2c6" x1="0%" x2="100%" y1="100%" y2="0%"><stop offset="0%" stop-color="#2e27ad"/><stop offset="100%" stop-color="#527fff"/></linearGradient></defs><path fill="url(#IconifyId19ed8b609f268ea2c6)" d="M0 0h256v256H0z"/><path fill="#fff" d="M166.675 175.52c-10.682 8.637-33.091 13.2-54.534 13.2c-21.447 0-43.863-4.566-54.541-13.202v17.392h.003c0 8.675 22.397 18.342 54.538 18.342c32.115 0 54.499-9.655 54.534-18.323zm.003-33.049l6.4-.035v.035c0 3.866-1.936 7.475-5.705 10.779c4.57 4.021 5.705 7.966 5.705 10.775c0 .02-.003.035-.003.054v28.831h.003c0 16.035-31.398 24.69-60.937 24.69c-29.469 0-60.781-8.617-60.931-24.578c0-.016-.01-.032-.01-.048v-28.958c0-.007.006-.016.006-.026c.01-2.809 1.15-6.738 5.712-10.75c-4.534-4.005-5.686-7.912-5.715-10.699h.003c0-.013-.006-.022-.006-.035v-28.958c0-.01.006-.02.006-.029c.01-2.809 1.152-6.738 5.716-10.743c-4.538-4.009-5.69-7.92-5.719-10.703h.003c0-.012-.006-.025-.006-.038V63.08c0-.01.006-.019.006-.029C51.261 47.04 82.624 38.4 112.141 38.4c16.675 0 32.694 2.65 43.948 7.271l-2.448 5.866c-10.505-4.314-25.632-6.79-41.5-6.79c-32.141 0-54.538 9.668-54.538 18.349c0 8.677 22.397 18.345 54.538 18.345c.867.01 1.715 0 2.573-.032l.268 6.342c-.947.038-1.894.038-2.841.038c-21.447 0-43.863-4.568-54.541-13.204V91.97h.003v.073c.032 3.329 3.447 6.236 6.307 8.083c8.608 5.488 24.032 9.236 41.232 10.014l-.29 6.341c-17.425-.79-32.682-4.405-42.503-9.946c-2.42 1.809-4.746 4.256-4.746 7.03c0 8.677 22.397 18.345 54.538 18.345c3.152 0 6.281-.105 9.305-.315l.445 6.332c-3.168.22-6.451.33-9.75.33c-21.447 0-43.863-4.567-54.541-13.203v17.383h.003c.032 3.403 3.447 6.307 6.307 8.157c9.844 6.281 28.327 10.192 48.23 10.192h1.409v6.347h-1.408c-20.221 0-38.599-3.754-49.837-10.099c-2.406 1.806-4.7 4.24-4.7 6.992c0 8.677 22.396 18.348 54.537 18.348c32.115 0 54.499-9.655 54.534-18.326v-.035c-.006-2.758-2.31-5.192-4.723-6.998a45 45 0 0 1-5.14 2.523l-2.45-5.865c2.323-.955 4.339-1.987 5.993-3.072c2.886-1.883 6.323-4.825 6.323-8.129m27.411-46.418h-17.932c-1.06 0-2.055-.52-2.647-1.39a3.14 3.14 0 0 1-.33-2.951l10.91-27.27h-41.31l-19.2 38.086h20.423c1.02 0 1.98.486 2.586 1.301c.598.82.774 1.87.464 2.838l-18.228 56.818zm9.821-.974l-79.996 82.648a3.22 3.22 0 0 1-2.31.974a3.2 3.2 0 0 1-1.636-.444a3.16 3.16 0 0 1-1.414-3.692l21.075-65.69h-21.226a3.21 3.21 0 0 1-2.723-1.504a3.15 3.15 0 0 1-.138-3.088l22.4-44.434a3.2 3.2 0 0 1 2.861-1.755h48a3.21 3.21 0 0 1 2.646 1.39a3.15 3.15 0 0 1 .33 2.955L180.87 89.706h20.73c1.28 0 2.441.761 2.944 1.93a3.16 3.16 0 0 1-.634 3.443M62.256 194.158c4.534 2.555 10.243 4.703 16.966 6.38l1.562-6.158c-6.077-1.514-11.389-3.5-15.366-5.742zm16.966-44.403l1.562-6.154c-6.077-1.517-11.389-3.504-15.366-5.745l-3.162 5.52c4.534 2.555 10.24 4.704 16.966 6.38M62.256 92.594l3.162-5.52c3.97 2.241 9.286 4.225 15.366 5.745l-1.562 6.154c-6.732-1.679-12.438-3.827-16.966-6.38"/></svg></g></g></g><g id="my-svg-service-s3input" class="architecture-service" transform="translate(-606.9235892113951,53.32019002514127)"><g dy="1em" alignment-baseline="middle" dominant-baseline="middle" text-anchor="middle" transform="translate(40, 80)"><g><rect class="background" style="stroke: none"/><text y="-10.1" style=""><tspan class="text-outer-tspan row" x="0" y="-0.1em" dy="1.1em"><tspan font-style="normal" class="text-inner-tspan" font-weight="normal">S3</tspan><tspan font-style="normal" class="text-inner-tspan" font-weight="normal"> Input</tspan></tspan></text></g></g><g><g><svg xmlns="http://www.w3.org/2000/svg" width="80" height="80" viewBox="0 0 256 256"><defs><linearGradient id="IconifyId19ed8b609f268ea2c7" x1="0%" x2="100%" y1="100%" y2="0%"><stop offset="0%" stop-color="#1b660f"/><stop offset="100%" stop-color="#6cae3e"/></linearGradient></defs><path fill="url(#IconifyId19ed8b609f268ea2c7)" d="M0 0h256v256H0z"/><path fill="#fff" d="m194.675 137.256l1.229-8.652c11.33 6.787 11.478 9.59 11.475 9.667c-.02.016-1.952 1.629-12.704-1.015m-6.218-1.728c-19.584-5.926-46.857-18.438-57.894-23.654c0-.045.013-.086.013-.131c0-4.24-3.45-7.69-7.693-7.69c-4.237 0-7.687 3.45-7.687 7.69s3.45 7.69 7.687 7.69c1.862 0 3.552-.695 4.886-1.8c12.986 6.148 40.048 18.478 59.776 24.302l-7.801 55.059q-.033.225-.032.451c0 4.848-21.463 13.754-56.532 13.754c-35.44 0-57.13-8.906-57.13-13.754q0-.22-.028-.435l-16.3-119.062c14.108 9.712 44.454 14.85 73.478 14.85c28.979 0 59.273-5.12 73.41-14.802zM48 65.528c.23-4.21 24.428-20.73 75.2-20.73c50.764 0 74.966 16.516 75.2 20.73v1.437c-2.784 9.443-34.144 19.434-75.2 19.434c-41.127 0-72.503-10.023-75.2-19.479zm156.8.07c0-11.087-31.79-27.2-81.6-27.2c-49.812 0-81.6 16.113-81.6 27.2l.3 2.414l17.754 129.676c.426 14.503 39.1 19.91 63.526 19.91c30.31 0 62.512-6.969 62.928-19.9l7.668-54.07c4.265 1.02 7.776 1.542 10.595 1.542c3.785 0 6.345-.925 7.897-2.774c1.274-1.517 1.76-3.354 1.396-5.31c-.83-4.428-6.087-9.202-16.794-15.311l7.603-53.639z"/></svg></g></g></g><g id="my-svg-service-eventbridge1" class="architecture-service" transform="translate(-390.685432864268,53.32019002514127)"><g dy="1em" alignment-baseline="middle" dominant-baseline="middle" text-anchor="middle" transform="translate(40, 80)"><g><rect class="background" style="stroke: none"/><text y="-10.1" style=""><tspan class="text-outer-tspan row" x="0" y="-0.1em" dy="1.1em"><tspan font-style="normal" class="text-inner-tspan" font-weight="normal">EventBridge</tspan></tspan></text></g></g><g><g><svg xmlns="http://www.w3.org/2000/svg" width="80" height="80" viewBox="0 0 256 256"><defs><linearGradient id="IconifyId19ed8b609f268ea2c8" x1="0%" x2="100%" y1="100%" y2="0%"><stop offset="0%" stop-color="#b0084d"/><stop offset="100%" stop-color="#ff4f8b"/></linearGradient></defs><path fill="url(#IconifyId19ed8b609f268ea2c8)" d="M0 0h256v256H0z"/><path fill="#fff" d="M171.702 211.2c-6.858 0-12.44-5.61-12.44-12.509s5.582-12.509 12.44-12.509s12.438 5.61 12.438 12.51c0 6.898-5.581 12.508-12.438 12.508m-27.278-54.4h-33.071L94.815 128l16.538-28.8h33.071L160.96 128zM88.387 69.818c-6.857 0-12.438-5.61-12.438-12.51c0-6.898 5.581-12.508 12.438-12.508c6.861 0 12.443 5.61 12.443 12.509s-5.582 12.509-12.443 12.509m83.315 109.964c-2.362 0-4.614.458-6.699 1.261l-13.514-22.931l-.713.426L167.39 129.6a3.23 3.23 0 0 0 0-3.2l-18.374-32a3.18 3.18 0 0 0-2.755-1.6h-33.435l.13-.077l-12.39-21.03c4.047-3.469 6.628-8.627 6.628-14.384c0-10.426-8.436-18.909-18.807-18.909c-10.367 0-18.803 8.483-18.803 18.909s8.436 18.909 18.803 18.909c2.365 0 4.618-.458 6.702-1.261l11.567 19.625L88.384 126.4a3.23 3.23 0 0 0 0 3.2l18.377 32c.57.992 1.62 1.6 2.756 1.6h36.744c.264 0 .521-.042.77-.102l12.496 21.21c-4.051 3.468-6.629 8.626-6.629 14.383c0 10.426 8.433 18.909 18.804 18.909s18.803-8.483 18.803-18.909s-8.433-18.909-18.803-18.909m18.968-77.05c-6.857 0-12.436-5.609-12.436-12.508c0-6.9 5.579-12.509 12.436-12.509s12.44 5.61 12.44 12.509c0 6.9-5.582 12.509-12.44 12.509m23.303 23.668l-12.08-21.04c4.592-3.453 7.58-8.944 7.58-15.136c0-10.426-8.432-18.909-18.803-18.909c-2.638 0-5.152.554-7.433 1.549l-9.849-17.155a3.18 3.18 0 0 0-2.756-1.6h-39.448v6.4h37.612l9.11 15.872c-3.703 3.456-6.036 8.374-6.036 13.843c0 10.426 8.433 18.909 18.8 18.909c1.932 0 3.8-.298 5.556-.845L207.545 128l-15.892 27.674l5.512 3.2l16.808-29.274a3.21 3.21 0 0 0 0-3.2m-146.04 50.39c-6.86 0-12.442-5.612-12.442-12.508c0-6.9 5.581-12.51 12.442-12.51c6.857 0 12.439 5.61 12.439 12.51c0 6.896-5.582 12.508-12.44 12.508m10.393 3.236c5.062-3.392 8.41-9.181 8.41-15.744c0-10.426-8.436-18.91-18.803-18.91c-3.004 0-5.833.73-8.353 1.994L48.458 128l18.428-32.093l-5.515-3.2L42.027 126.4a3.21 3.21 0 0 0 0 3.2l12.388 21.568c-3.268 3.405-5.289 8.022-5.289 13.114c0 10.425 8.436 18.908 18.807 18.908c1.562 0 3.074-.214 4.528-.579l10.15 17.68c.57.989 1.62 1.6 2.757 1.6h39.451v-6.4H87.204z"/></svg></g></g></g><g id="my-svg-service-document-processor" class="architecture-service" transform="translate(-155.0738810582447,53.32019002514127)"><g dy="1em" alignment-baseline="middle" dominant-baseline="middle" text-anchor="middle" transform="translate(40, 80)"><g><rect class="background" style="stroke: none"/><text y="-10.1" style=""><tspan class="text-outer-tspan row" x="0" y="-0.1em" dy="1.1em"><tspan font-style="normal" class="text-inner-tspan" font-weight="normal">Document</tspan></tspan><tspan class="text-outer-tspan row" x="0" y="1em" dy="1.1em"><tspan font-style="normal" class="text-inner-tspan" font-weight="normal">Processor</tspan></tspan></text></g></g><g><g><svg xmlns="http://www.w3.org/2000/svg" width="80" height="80" viewBox="0 0 256 256"><defs><linearGradient id="IconifyId19ed8b609f268ea2c9" x1="0%" x2="100%" y1="100%" y2="0%"><stop offset="0%" stop-color="#c8511b"/><stop offset="100%" stop-color="#f90"/></linearGradient></defs><path fill="url(#IconifyId19ed8b609f268ea2c9)" d="M0 0h256v256H0z"/><path fill="#fff" d="M89.624 211.2H49.89l43.945-91.853l19.912 40.992zm7.079-100.63a3.22 3.22 0 0 0-2.887-1.805h-.01a3.2 3.2 0 0 0-2.886 1.82L41.913 213.022a3.203 3.203 0 0 0 2.893 4.58l46.848-.001a3.21 3.21 0 0 0 2.9-1.83l25.65-54.08a3.18 3.18 0 0 0-.016-2.762zM207.985 211.2h-39.477L105.174 78.624a3.21 3.21 0 0 0-2.897-1.824h-25.83l.03-32h50.626l63.042 132.573a3.21 3.21 0 0 0 2.897 1.827h14.943zm3.208-38.4h-16.121L132.03 40.227a3.21 3.21 0 0 0-2.9-1.827H73.273a3.206 3.206 0 0 0-3.208 3.197l-.035 38.4c0 .851.333 1.664.94 2.265c.6.602 1.414.938 2.267.938h27.017l63.337 132.576a3.2 3.2 0 0 0 2.893 1.824h44.709a3.203 3.203 0 0 0 3.207-3.2V176c0-1.766-1.434-3.2-3.207-3.2"/></svg></g></g></g><g id="my-svg-service-ddb" class="architecture-service" transform="translate(50.94686936108731,53.32019002514127)"><g dy="1em" alignment-baseline="middle" dominant-baseline="middle" text-anchor="middle" transform="translate(40, 80)"><g><rect class="background" style="stroke: none"/><text y="-10.1" style=""><tspan class="text-outer-tspan row" x="0" y="-0.1em" dy="1.1em"><tspan font-style="normal" class="text-inner-tspan" font-weight="normal">Document</tspan></tspan><tspan class="text-outer-tspan row" x="0" y="1em" dy="1.1em"><tspan font-style="normal" class="text-inner-tspan" font-weight="normal">Metadata</tspan></tspan></text></g></g><g><g><svg xmlns="http://www.w3.org/2000/svg" width="80" height="80" viewBox="0 0 256 256"><defs><linearGradient id="IconifyId19ed8b609f268ea2c10" x1="0%" x2="100%" y1="100%" y2="0%"><stop offset="0%" stop-color="#2e27ad"/><stop offset="100%" stop-color="#527fff"/></linearGradient></defs><path fill="url(#IconifyId19ed8b609f268ea2c10)" d="M0 0h256v256H0z"/><path fill="#fff" d="M166.675 175.52c-10.682 8.637-33.091 13.2-54.534 13.2c-21.447 0-43.863-4.566-54.541-13.202v17.392h.003c0 8.675 22.397 18.342 54.538 18.342c32.115 0 54.499-9.655 54.534-18.323zm.003-33.049l6.4-.035v.035c0 3.866-1.936 7.475-5.705 10.779c4.57 4.021 5.705 7.966 5.705 10.775c0 .02-.003.035-.003.054v28.831h.003c0 16.035-31.398 24.69-60.937 24.69c-29.469 0-60.781-8.617-60.931-24.578c0-.016-.01-.032-.01-.048v-28.958c0-.007.006-.016.006-.026c.01-2.809 1.15-6.738 5.712-10.75c-4.534-4.005-5.686-7.912-5.715-10.699h.003c0-.013-.006-.022-.006-.035v-28.958c0-.01.006-.02.006-.029c.01-2.809 1.152-6.738 5.716-10.743c-4.538-4.009-5.69-7.92-5.719-10.703h.003c0-.012-.006-.025-.006-.038V63.08c0-.01.006-.019.006-.029C51.261 47.04 82.624 38.4 112.141 38.4c16.675 0 32.694 2.65 43.948 7.271l-2.448 5.866c-10.505-4.314-25.632-6.79-41.5-6.79c-32.141 0-54.538 9.668-54.538 18.349c0 8.677 22.397 18.345 54.538 18.345c.867.01 1.715 0 2.573-.032l.268 6.342c-.947.038-1.894.038-2.841.038c-21.447 0-43.863-4.568-54.541-13.204V91.97h.003v.073c.032 3.329 3.447 6.236 6.307 8.083c8.608 5.488 24.032 9.236 41.232 10.014l-.29 6.341c-17.425-.79-32.682-4.405-42.503-9.946c-2.42 1.809-4.746 4.256-4.746 7.03c0 8.677 22.397 18.345 54.538 18.345c3.152 0 6.281-.105 9.305-.315l.445 6.332c-3.168.22-6.451.33-9.75.33c-21.447 0-43.863-4.567-54.541-13.203v17.383h.003c.032 3.403 3.447 6.307 6.307 8.157c9.844 6.281 28.327 10.192 48.23 10.192h1.409v6.347h-1.408c-20.221 0-38.599-3.754-49.837-10.099c-2.406 1.806-4.7 4.24-4.7 6.992c0 8.677 22.396 18.348 54.537 18.348c32.115 0 54.499-9.655 54.534-18.326v-.035c-.006-2.758-2.31-5.192-4.723-6.998a45 45 0 0 1-5.14 2.523l-2.45-5.865c2.323-.955 4.339-1.987 5.993-3.072c2.886-1.883 6.323-4.825 6.323-8.129m27.411-46.418h-17.932c-1.06 0-2.055-.52-2.647-1.39a3.14 3.14 0 0 1-.33-2.951l10.91-27.27h-41.31l-19.2 38.086h20.423c1.02 0 1.98.486 2.586 1.301c.598.82.774 1.87.464 2.838l-18.228 56.818zm9.821-.974l-79.996 82.648a3.22 3.22 0 0 1-2.31.974a3.2 3.2 0 0 1-1.636-.444a3.16 3.16 0 0 1-1.414-3.692l21.075-65.69h-21.226a3.21 3.21 0 0 1-2.723-1.504a3.15 3.15 0 0 1-.138-3.088l22.4-44.434a3.2 3.2 0 0 1 2.861-1.755h48a3.21 3.21 0 0 1 2.646 1.39a3.15 3.15 0 0 1 .33 2.955L180.87 89.706h20.73c1.28 0 2.441.761 2.944 1.93a3.16 3.16 0 0 1-.634 3.443M62.256 194.158c4.534 2.555 10.243 4.703 16.966 6.38l1.562-6.158c-6.077-1.514-11.389-3.5-15.366-5.742zm16.966-44.403l1.562-6.154c-6.077-1.517-11.389-3.504-15.366-5.745l-3.162 5.52c4.534 2.555 10.24 4.704 16.966 6.38M62.256 92.594l3.162-5.52c3.97 2.241 9.286 4.225 15.366 5.745l-1.562 6.154c-6.732-1.679-12.438-3.827-16.966-6.38"/></svg></g></g></g><g id="my-svg-service-bedrock-preclassify" class="architecture-service" transform="translate(-155.0738810582447,-147.66676911136184)"><g dy="1em" alignment-baseline="middle" dominant-baseline="middle" text-anchor="middle" transform="translate(40, 80)"><g><rect class="background" style="stroke: none"/><text y="-10.1" style=""><tspan class="text-outer-tspan row" x="0" y="-0.1em" dy="1.1em"><tspan font-style="normal" class="text-inner-tspan" font-weight="normal">AWS</tspan><tspan font-style="normal" class="text-inner-tspan" font-weight="normal"> Bedrock</tspan></tspan><tspan class="text-outer-tspan row" x="0" y="1em" dy="1.1em"><tspan font-style="normal" class="text-inner-tspan" font-weight="normal">Preclassify</tspan></tspan></text></g></g><g><g><svg xmlns="http://www.w3.org/2000/svg" width="80" height="80" viewBox="0 0 80 80"><g><rect width="80" height="80" style="fill: #087ebf; stroke-width: 0px;"/><rect x="17.5" y="17.5" width="45" height="45" rx="2" ry="2" style="fill: none; stroke: #fff; stroke-miterlimit: 10; stroke-width: 2px;"/><line x1="17.5" y1="32.5" x2="62.5" y2="32.5" style="fill: none; stroke: #fff; stroke-miterlimit: 10; stroke-width: 2px;"/><line x1="17.5" y1="47.5" x2="62.5" y2="47.5" style="fill: none; stroke: #fff; stroke-miterlimit: 10; stroke-width: 2px;"/><g><path d="m56.25,25c0,.27-.45.5-1,.5h-10.5c-.55,0-1-.23-1-.5s.45-.5,1-.5h10.5c.55,0,1,.23,1,.5Z" style="fill: #fff; stroke-width: 0px;"/><path d="m56.25,25c0,.27-.45.5-1,.5h-10.5c-.55,0-1-.23-1-.5s.45-.5,1-.5h10.5c.55,0,1,.23,1,.5Z" style="fill: none; stroke: #fff; stroke-miterlimit: 10;"/></g><g><path d="m56.25,40c0,.27-.45.5-1,.5h-10.5c-.55,0-1-.23-1-.5s.45-.5,1-.5h10.5c.55,0,1,.23,1,.5Z" style="fill: #fff; stroke-width: 0px;"/><path d="m56.25,40c0,.27-.45.5-1,.5h-10.5c-.55,0-1-.23-1-.5s.45-.5,1-.5h10.5c.55,0,1,.23,1,.5Z" style="fill: none; stroke: #fff; stroke-miterlimit: 10;"/></g><g><path d="m56.25,55c0,.27-.45.5-1,.5h-10.5c-.55,0-1-.23-1-.5s.45-.5,1-.5h10.5c.55,0,1,.23,1,.5Z" style="fill: #fff; stroke-width: 0px;"/><path d="m56.25,55c0,.27-.45.5-1,.5h-10.5c-.55,0-1-.23-1-.5s.45-.5,1-.5h10.5c.55,0,1,.23,1,.5Z" style="fill: none; stroke: #fff; stroke-miterlimit: 10;"/></g><g><circle cx="32.5" cy="25" r=".75" style="fill: #fff; stroke: #fff; stroke-miterlimit: 10;"/><circle cx="27.5" cy="25" r=".75" style="fill: #fff; stroke: #fff; stroke-miterlimit: 10;"/><circle cx="22.5" cy="25" r=".75" style="fill: #fff; stroke: #fff; stroke-miterlimit: 10;"/></g><g><circle cx="32.5" cy="40" r=".75" style="fill: #fff; stroke: #fff; stroke-miterlimit: 10;"/><circle cx="27.5" cy="40" r=".75" style="fill: #fff; stroke: #fff; stroke-miterlimit: 10;"/><circle cx="22.5" cy="40" r=".75" style="fill: #fff; stroke: #fff; stroke-miterlimit: 10;"/></g><g><circle cx="32.5" cy="55" r=".75" style="fill: #fff; stroke: #fff; stroke-miterlimit: 10;"/><circle cx="27.5" cy="55" r=".75" style="fill: #fff; stroke: #fff; stroke-miterlimit: 10;"/><circle cx="22.5" cy="55" r=".75" style="fill: #fff; stroke: #fff; stroke-miterlimit: 10;"/></g></g></svg></g></g></g><g id="my-svg-service-bedrock" class="architecture-service" transform="translate(-155.0738810582447,328.6983477789553)"><g dy="1em" alignment-baseline="middle" dominant-baseline="middle" text-anchor="middle" transform="translate(40, 80)"><g><rect class="background" style="stroke: none"/><text y="-10.1" style=""><tspan class="text-outer-tspan row" x="0" y="-0.1em" dy="1.1em"><tspan font-style="normal" class="text-inner-tspan" font-weight="normal">Bedrock</tspan><tspan font-style="normal" class="text-inner-tspan" font-weight="normal"> Data</tspan></tspan><tspan class="text-outer-tspan row" x="0" y="1em" dy="1.1em"><tspan font-style="normal" class="text-inner-tspan" font-weight="normal">Automation</tspan></tspan></text></g></g><g><g><svg xmlns="http://www.w3.org/2000/svg" width="80" height="80" viewBox="0 0 80 80"><g><rect width="80" height="80" style="fill: #087ebf; stroke-width: 0px;"/><rect x="17.5" y="17.5" width="45" height="45" rx="2" ry="2" style="fill: none; stroke: #fff; stroke-miterlimit: 10; stroke-width: 2px;"/><line x1="17.5" y1="32.5" x2="62.5" y2="32.5" style="fill: none; stroke: #fff; stroke-miterlimit: 10; stroke-width: 2px;"/><line x1="17.5" y1="47.5" x2="62.5" y2="47.5" style="fill: none; stroke: #fff; stroke-miterlimit: 10; stroke-width: 2px;"/><g><path d="m56.25,25c0,.27-.45.5-1,.5h-10.5c-.55,0-1-.23-1-.5s.45-.5,1-.5h10.5c.55,0,1,.23,1,.5Z" style="fill: #fff; stroke-width: 0px;"/><path d="m56.25,25c0,.27-.45.5-1,.5h-10.5c-.55,0-1-.23-1-.5s.45-.5,1-.5h10.5c.55,0,1,.23,1,.5Z" style="fill: none; stroke: #fff; stroke-miterlimit: 10;"/></g><g><path d="m56.25,40c0,.27-.45.5-1,.5h-10.5c-.55,0-1-.23-1-.5s.45-.5,1-.5h10.5c.55,0,1,.23,1,.5Z" style="fill: #fff; stroke-width: 0px;"/><path d="m56.25,40c0,.27-.45.5-1,.5h-10.5c-.55,0-1-.23-1-.5s.45-.5,1-.5h10.5c.55,0,1,.23,1,.5Z" style="fill: none; stroke: #fff; stroke-miterlimit: 10;"/></g><g><path d="m56.25,55c0,.27-.45.5-1,.5h-10.5c-.55,0-1-.23-1-.5s.45-.5,1-.5h10.5c.55,0,1,.23,1,.5Z" style="fill: #fff; stroke-width: 0px;"/><path d="m56.25,55c0,.27-.45.5-1,.5h-10.5c-.55,0-1-.23-1-.5s.45-.5,1-.5h10.5c.55,0,1,.23,1,.5Z" style="fill: none; stroke: #fff; stroke-miterlimit: 10;"/></g><g><circle cx="32.5" cy="25" r=".75" style="fill: #fff; stroke: #fff; stroke-miterlimit: 10;"/><circle cx="27.5" cy="25" r=".75" style="fill: #fff; stroke: #fff; stroke-miterlimit: 10;"/><circle cx="22.5" cy="25" r=".75" style="fill: #fff; stroke: #fff; stroke-miterlimit: 10;"/></g><g><circle cx="32.5" cy="40" r=".75" style="fill: #fff; stroke: #fff; stroke-miterlimit: 10;"/><circle cx="27.5" cy="40" r=".75" style="fill: #fff; stroke: #fff; stroke-miterlimit: 10;"/><circle cx="22.5" cy="40" r=".75" style="fill: #fff; stroke: #fff; stroke-miterlimit: 10;"/></g><g><circle cx="32.5" cy="55" r=".75" style="fill: #fff; stroke: #fff; stroke-miterlimit: 10;"/><circle cx="27.5" cy="55" r=".75" style="fill: #fff; stroke: #fff; stroke-miterlimit: 10;"/><circle cx="22.5" cy="55" r=".75" style="fill: #fff; stroke: #fff; stroke-miterlimit: 10;"/></g></g></svg></g></g></g><g id="my-svg-service-s3output" class="architecture-service" transform="translate(41.329339993561305,328.6983477789553)"><g dy="1em" alignment-baseline="middle" dominant-baseline="middle" text-anchor="middle" transform="translate(40, 80)"><g><rect class="background" style="stroke: none"/><text y="-10.1" style=""><tspan class="text-outer-tspan row" x="0" y="-0.1em" dy="1.1em"><tspan font-style="normal" class="text-inner-tspan" font-weight="normal">S3</tspan><tspan font-style="normal" class="text-inner-tspan" font-weight="normal"> Output</tspan></tspan></text></g></g><g><g><svg xmlns="http://www.w3.org/2000/svg" width="80" height="80" viewBox="0 0 256 256"><defs><linearGradient id="IconifyId19ed8b609f268ea2c11" x1="0%" x2="100%" y1="100%" y2="0%"><stop offset="0%" stop-color="#1b660f"/><stop offset="100%" stop-color="#6cae3e"/></linearGradient></defs><path fill="url(#IconifyId19ed8b609f268ea2c11)" d="M0 0h256v256H0z"/><path fill="#fff" d="m194.675 137.256l1.229-8.652c11.33 6.787 11.478 9.59 11.475 9.667c-.02.016-1.952 1.629-12.704-1.015m-6.218-1.728c-19.584-5.926-46.857-18.438-57.894-23.654c0-.045.013-.086.013-.131c0-4.24-3.45-7.69-7.693-7.69c-4.237 0-7.687 3.45-7.687 7.69s3.45 7.69 7.687 7.69c1.862 0 3.552-.695 4.886-1.8c12.986 6.148 40.048 18.478 59.776 24.302l-7.801 55.059q-.033.225-.032.451c0 4.848-21.463 13.754-56.532 13.754c-35.44 0-57.13-8.906-57.13-13.754q0-.22-.028-.435l-16.3-119.062c14.108 9.712 44.454 14.85 73.478 14.85c28.979 0 59.273-5.12 73.41-14.802zM48 65.528c.23-4.21 24.428-20.73 75.2-20.73c50.764 0 74.966 16.516 75.2 20.73v1.437c-2.784 9.443-34.144 19.434-75.2 19.434c-41.127 0-72.503-10.023-75.2-19.479zm156.8.07c0-11.087-31.79-27.2-81.6-27.2c-49.812 0-81.6 16.113-81.6 27.2l.3 2.414l17.754 129.676c.426 14.503 39.1 19.91 63.526 19.91c30.31 0 62.512-6.969 62.928-19.9l7.668-54.07c4.265 1.02 7.776 1.542 10.595 1.542c3.785 0 6.345-.925 7.897-2.774c1.274-1.517 1.76-3.354 1.396-5.31c-.83-4.428-6.087-9.202-16.794-15.311l7.603-53.639z"/></svg></g></g></g><g id="my-svg-service-eventbridge2" class="architecture-service" transform="translate(235.98197901698703,328.6983477789553)"><g dy="1em" alignment-baseline="middle" dominant-baseline="middle" text-anchor="middle" transform="translate(40, 80)"><g><rect class="background" style="stroke: none"/><text y="-10.1" style=""><tspan class="text-outer-tspan row" x="0" y="-0.1em" dy="1.1em"><tspan font-style="normal" class="text-inner-tspan" font-weight="normal">EventBridge</tspan></tspan></text></g></g><g><g><svg xmlns="http://www.w3.org/2000/svg" width="80" height="80" viewBox="0 0 256 256"><defs><linearGradient id="IconifyId19ed8b609f268ea2c12" x1="0%" x2="100%" y1="100%" y2="0%"><stop offset="0%" stop-color="#b0084d"/><stop offset="100%" stop-color="#ff4f8b"/></linearGradient></defs><path fill="url(#IconifyId19ed8b609f268ea2c12)" d="M0 0h256v256H0z"/><path fill="#fff" d="M171.702 211.2c-6.858 0-12.44-5.61-12.44-12.509s5.582-12.509 12.44-12.509s12.438 5.61 12.438 12.51c0 6.898-5.581 12.508-12.438 12.508m-27.278-54.4h-33.071L94.815 128l16.538-28.8h33.071L160.96 128zM88.387 69.818c-6.857 0-12.438-5.61-12.438-12.51c0-6.898 5.581-12.508 12.438-12.508c6.861 0 12.443 5.61 12.443 12.509s-5.582 12.509-12.443 12.509m83.315 109.964c-2.362 0-4.614.458-6.699 1.261l-13.514-22.931l-.713.426L167.39 129.6a3.23 3.23 0 0 0 0-3.2l-18.374-32a3.18 3.18 0 0 0-2.755-1.6h-33.435l.13-.077l-12.39-21.03c4.047-3.469 6.628-8.627 6.628-14.384c0-10.426-8.436-18.909-18.807-18.909c-10.367 0-18.803 8.483-18.803 18.909s8.436 18.909 18.803 18.909c2.365 0 4.618-.458 6.702-1.261l11.567 19.625L88.384 126.4a3.23 3.23 0 0 0 0 3.2l18.377 32c.57.992 1.62 1.6 2.756 1.6h36.744c.264 0 .521-.042.77-.102l12.496 21.21c-4.051 3.468-6.629 8.626-6.629 14.383c0 10.426 8.433 18.909 18.804 18.909s18.803-8.483 18.803-18.909s-8.433-18.909-18.803-18.909m18.968-77.05c-6.857 0-12.436-5.609-12.436-12.508c0-6.9 5.579-12.509 12.436-12.509s12.44 5.61 12.44 12.509c0 6.9-5.582 12.509-12.44 12.509m23.303 23.668l-12.08-21.04c4.592-3.453 7.58-8.944 7.58-15.136c0-10.426-8.432-18.909-18.803-18.909c-2.638 0-5.152.554-7.433 1.549l-9.849-17.155a3.18 3.18 0 0 0-2.756-1.6h-39.448v6.4h37.612l9.11 15.872c-3.703 3.456-6.036 8.374-6.036 13.843c0 10.426 8.433 18.909 18.8 18.909c1.932 0 3.8-.298 5.556-.845L207.545 128l-15.892 27.674l5.512 3.2l16.808-29.274a3.21 3.21 0 0 0 0-3.2m-146.04 50.39c-6.86 0-12.442-5.612-12.442-12.508c0-6.9 5.581-12.51 12.442-12.51c6.857 0 12.439 5.61 12.439 12.51c0 6.896-5.582 12.508-12.44 12.508m10.393 3.236c5.062-3.392 8.41-9.181 8.41-15.744c0-10.426-8.436-18.91-18.803-18.91c-3.004 0-5.833.73-8.353 1.994L48.458 128l18.428-32.093l-5.515-3.2L42.027 126.4a3.21 3.21 0 0 0 0 3.2l12.388 21.568c-3.268 3.405-5.289 8.022-5.289 13.114c0 10.425 8.436 18.908 18.807 18.908c1.562 0 3.074-.214 4.528-.579l10.15 17.68c.57.989 1.62 1.6 2.757 1.6h39.451v-6.4H87.204z"/></svg></g></g></g><g id="my-svg-service-bda-result-processor" class="architecture-service" transform="translate(429.2199384527383,328.6983477789553)"><g dy="1em" alignment-baseline="middle" dominant-baseline="middle" text-anchor="middle" transform="translate(40, 80)"><g><rect class="background" style="stroke: none"/><text y="-10.1" style=""><tspan class="text-outer-tspan row" x="0" y="-0.1em" dy="1.1em"><tspan font-style="normal" class="text-inner-tspan" font-weight="normal">BDA</tspan><tspan font-style="normal" class="text-inner-tspan" font-weight="normal"> Result</tspan></tspan><tspan class="text-outer-tspan row" x="0" y="1em" dy="1.1em"><tspan font-style="normal" class="text-inner-tspan" font-weight="normal">Processor</tspan></tspan></text></g></g><g><g><svg xmlns="http://www.w3.org/2000/svg" width="80" height="80" viewBox="0 0 256 256"><defs><linearGradient id="IconifyId19ed8b609f268ea2c13" x1="0%" x2="100%" y1="100%" y2="0%"><stop offset="0%" stop-color="#c8511b"/><stop offset="100%" stop-color="#f90"/></linearGradient></defs><path fill="url(#IconifyId19ed8b609f268ea2c13)" d="M0 0h256v256H0z"/><path fill="#fff" d="M89.624 211.2H49.89l43.945-91.853l19.912 40.992zm7.079-100.63a3.22 3.22 0 0 0-2.887-1.805h-.01a3.2 3.2 0 0 0-2.886 1.82L41.913 213.022a3.203 3.203 0 0 0 2.893 4.58l46.848-.001a3.21 3.21 0 0 0 2.9-1.83l25.65-54.08a3.18 3.18 0 0 0-.016-2.762zM207.985 211.2h-39.477L105.174 78.624a3.21 3.21 0 0 0-2.897-1.824h-25.83l.03-32h50.626l63.042 132.573a3.21 3.21 0 0 0 2.897 1.827h14.943zm3.208-38.4h-16.121L132.03 40.227a3.21 3.21 0 0 0-2.9-1.827H73.273a3.206 3.206 0 0 0-3.208 3.197l-.035 38.4c0 .851.333 1.664.94 2.265c.6.602 1.414.938 2.267.938h27.017l63.337 132.576a3.2 3.2 0 0 0 2.893 1.824h44.709a3.203 3.203 0 0 0 3.207-3.2V176c0-1.766-1.434-3.2-3.207-3.2"/></svg></g></g></g><g id="my-svg-service-ddb2" class="architecture-service" transform="translate(631.0692880734761,328.6983477789553)"><g dy="1em" alignment-baseline="middle" dominant-baseline="middle" text-anchor="middle" transform="translate(40, 80)"><g><rect class="background" style="stroke: none"/><text y="-10.1" style=""><tspan class="text-outer-tspan row" x="0" y="-0.1em" dy="1.1em"><tspan font-style="normal" class="text-inner-tspan" font-weight="normal">Document</tspan></tspan><tspan class="text-outer-tspan row" x="0" y="1em" dy="1.1em"><tspan font-style="normal" class="text-inner-tspan" font-weight="normal">Metadata</tspan></tspan></text></g></g><g><g><svg xmlns="http://www.w3.org/2000/svg" width="80" height="80" viewBox="0 0 256 256"><defs><linearGradient id="IconifyId19ed8b609f268ea2c14" x1="0%" x2="100%" y1="100%" y2="0%"><stop offset="0%" stop-color="#2e27ad"/><stop offset="100%" stop-color="#527fff"/></linearGradient></defs><path fill="url(#IconifyId19ed8b609f268ea2c14)" d="M0 0h256v256H0z"/><path fill="#fff" d="M166.675 175.52c-10.682 8.637-33.091 13.2-54.534 13.2c-21.447 0-43.863-4.566-54.541-13.202v17.392h.003c0 8.675 22.397 18.342 54.538 18.342c32.115 0 54.499-9.655 54.534-18.323zm.003-33.049l6.4-.035v.035c0 3.866-1.936 7.475-5.705 10.779c4.57 4.021 5.705 7.966 5.705 10.775c0 .02-.003.035-.003.054v28.831h.003c0 16.035-31.398 24.69-60.937 24.69c-29.469 0-60.781-8.617-60.931-24.578c0-.016-.01-.032-.01-.048v-28.958c0-.007.006-.016.006-.026c.01-2.809 1.15-6.738 5.712-10.75c-4.534-4.005-5.686-7.912-5.715-10.699h.003c0-.013-.006-.022-.006-.035v-28.958c0-.01.006-.02.006-.029c.01-2.809 1.152-6.738 5.716-10.743c-4.538-4.009-5.69-7.92-5.719-10.703h.003c0-.012-.006-.025-.006-.038V63.08c0-.01.006-.019.006-.029C51.261 47.04 82.624 38.4 112.141 38.4c16.675 0 32.694 2.65 43.948 7.271l-2.448 5.866c-10.505-4.314-25.632-6.79-41.5-6.79c-32.141 0-54.538 9.668-54.538 18.349c0 8.677 22.397 18.345 54.538 18.345c.867.01 1.715 0 2.573-.032l.268 6.342c-.947.038-1.894.038-2.841.038c-21.447 0-43.863-4.568-54.541-13.204V91.97h.003v.073c.032 3.329 3.447 6.236 6.307 8.083c8.608 5.488 24.032 9.236 41.232 10.014l-.29 6.341c-17.425-.79-32.682-4.405-42.503-9.946c-2.42 1.809-4.746 4.256-4.746 7.03c0 8.677 22.397 18.345 54.538 18.345c3.152 0 6.281-.105 9.305-.315l.445 6.332c-3.168.22-6.451.33-9.75.33c-21.447 0-43.863-4.567-54.541-13.203v17.383h.003c.032 3.403 3.447 6.307 6.307 8.157c9.844 6.281 28.327 10.192 48.23 10.192h1.409v6.347h-1.408c-20.221 0-38.599-3.754-49.837-10.099c-2.406 1.806-4.7 4.24-4.7 6.992c0 8.677 22.396 18.348 54.537 18.348c32.115 0 54.499-9.655 54.534-18.326v-.035c-.006-2.758-2.31-5.192-4.723-6.998a45 45 0 0 1-5.14 2.523l-2.45-5.865c2.323-.955 4.339-1.987 5.993-3.072c2.886-1.883 6.323-4.825 6.323-8.129m27.411-46.418h-17.932c-1.06 0-2.055-.52-2.647-1.39a3.14 3.14 0 0 1-.33-2.951l10.91-27.27h-41.31l-19.2 38.086h20.423c1.02 0 1.98.486 2.586 1.301c.598.82.774 1.87.464 2.838l-18.228 56.818zm9.821-.974l-79.996 82.648a3.22 3.22 0 0 1-2.31.974a3.2 3.2 0 0 1-1.636-.444a3.16 3.16 0 0 1-1.414-3.692l21.075-65.69h-21.226a3.21 3.21 0 0 1-2.723-1.504a3.15 3.15 0 0 1-.138-3.088l22.4-44.434a3.2 3.2 0 0 1 2.861-1.755h48a3.21 3.21 0 0 1 2.646 1.39a3.15 3.15 0 0 1 .33 2.955L180.87 89.706h20.73c1.28 0 2.441.761 2.944 1.93a3.16 3.16 0 0 1-.634 3.443M62.256 194.158c4.534 2.555 10.243 4.703 16.966 6.38l1.562-6.158c-6.077-1.514-11.389-3.5-15.366-5.742zm16.966-44.403l1.562-6.154c-6.077-1.517-11.389-3.504-15.366-5.745l-3.162 5.52c4.534 2.555 10.24 4.704 16.966 6.38M62.256 92.594l3.162-5.52c3.97 2.241 9.286 4.225 15.366 5.745l-1.562 6.154c-6.732-1.679-12.438-3.827-16.966-6.38"/></svg></g></g></g><g id="my-svg-service-sqs" class="architecture-service" transform="translate(429.2199384527383,599.7500832658872)"><g dy="1em" alignment-baseline="middle" dominant-baseline="middle" text-anchor="middle" transform="translate(40, 80)"><g><rect class="background" style="stroke: none"/><text y="-10.1" style=""><tspan class="text-outer-tspan row" x="0" y="-0.1em" dy="1.1em"><tspan font-style="normal" class="text-inner-tspan" font-weight="normal">SQS</tspan><tspan font-style="normal" class="text-inner-tspan" font-weight="normal"> Queue</tspan></tspan></text></g></g><g><g><svg xmlns="http://www.w3.org/2000/svg" width="80" height="80" viewBox="0 0 256 256"><defs><linearGradient id="IconifyId19ed8b609f268ea2c15" x1="0%" x2="100%" y1="100%" y2="0%"><stop offset="0%" stop-color="#b0084d"/><stop offset="100%" stop-color="#ff4f8b"/></linearGradient></defs><path fill="url(#IconifyId19ed8b609f268ea2c15)" d="M0 0h256v256H0z"/><path fill="#fff" d="m91.894 139.8l9.607-9.49a3.18 3.18 0 0 0 .944-2.246a3.17 3.17 0 0 0-.932-2.253l-9.606-9.599l-4.54 4.486l4.12 4.12H76.83v6.364h14.71l-4.16 4.107zm73.315.29l12.808-9.551a3.19 3.19 0 0 0 1.278-2.542a3.19 3.19 0 0 0-1.281-2.549l-12.808-9.538l-3.843 5.09l5.123 3.818h-12.808v6.364h12.805L161.36 135zM112.666 128c0 6.755-1.169 13.124-3.352 18.666c5.76-2.214 12.257-3.321 18.748-3.321c6.49 0 12.987 1.107 18.744 3.321c-2.18-5.542-3.349-11.911-3.349-18.666s1.169-13.12 3.35-18.666c-11.518 4.425-25.972 4.425-37.493 0c2.183 5.545 3.352 11.911 3.352 18.666M96.98 158.884a3.163 3.163 0 0 1 0-4.499c5.812-5.775 9.283-15.64 9.283-26.385c0-10.744-3.471-20.61-9.283-26.385a3.163 3.163 0 0 1 0-4.499a3.213 3.213 0 0 1 4.528 0c12.408 12.329 40.701 12.329 53.11 0a3.213 3.213 0 0 1 4.527 0a3.163 3.163 0 0 1 0 4.499c-5.812 5.775-9.283 15.64-9.283 26.385c0 10.744 3.471 20.61 9.283 26.385a3.163 3.163 0 0 1 0 4.499a3.2 3.2 0 0 1-2.264.932c-.82 0-1.64-.312-2.264-.932c-12.408-12.329-40.701-12.329-53.109 0a3.213 3.213 0 0 1-4.528 0m114.224-30.868c0-2.965-1.162-5.752-3.272-7.85a11.16 11.16 0 0 0-7.9-3.244c-2.86 0-5.722 1.078-7.9 3.245c-4.357 4.327-4.357 11.368 0 15.698c4.355 4.327 11.438 4.33 15.8 0a11 11 0 0 0 3.272-7.85m1.255 12.348c-3.426 3.404-7.925 5.106-12.427 5.106s-9-1.702-12.427-5.106c-6.856-6.809-6.856-17.887 0-24.696c6.856-6.815 18.005-6.809 24.854 0c6.856 6.809 6.856 17.887 0 24.696M67.136 128.089c0-2.965-1.162-5.752-3.272-7.849a11.13 11.13 0 0 0-7.9-3.252a11.15 11.15 0 0 0-7.9 3.252a11 11 0 0 0-3.269 7.85a11 11 0 0 0 3.27 7.848c4.223 4.19 11.578 4.19 15.799 0a11 11 0 0 0 3.272-7.849m1.255 12.348c-3.426 3.404-7.925 5.106-12.427 5.106c-4.499 0-8.998-1.702-12.427-5.106c-6.85-6.809-6.85-17.887 0-24.696c6.856-6.808 18.002-6.808 24.854 0c6.853 6.809 6.853 17.887 0 24.696m107.276 35.102c-12.783 12.705-29.783 19.698-47.862 19.698c-18.085 0-35.081-6.993-47.864-19.698c-8.767-8.708-13.593-19.115-16.097-26.308l-6.052 2.08c2.725 7.827 7.993 19.163 17.621 28.727c13.993 13.907 32.597 21.562 52.392 21.562c19.792 0 38.396-7.655 52.39-21.562c8.085-8.027 14.524-18.233 18.139-28.736l-6.058-2.062c-3.305 9.602-9.203 18.944-16.61 26.3M63.84 106.772l-6.045-2.087c3.874-11.084 10.137-21.291 17.637-28.74C89.419 62.053 108.017 54.4 127.805 54.4c19.79 0 38.387 7.652 52.37 21.546c7.893 7.842 14.512 18.316 18.153 28.74l-6.046 2.086c-3.34-9.544-9.401-19.14-16.635-26.327c-12.773-12.695-29.766-19.682-47.842-19.682c-18.078 0-35.068 6.987-47.845 19.682c-6.826 6.786-12.552 16.137-16.119 26.327"/></svg></g></g></g><g id="my-svg-service-metrics-processor" class="architecture-service" transform="translate(604.2714156963875,599.7500832658872)"><g dy="1em" alignment-baseline="middle" dominant-baseline="middle" text-anchor="middle" transform="translate(40, 80)"><g><rect class="background" style="stroke: none"/><text y="-10.1" style=""><tspan class="text-outer-tspan row" x="0" y="-0.1em" dy="1.1em"><tspan font-style="normal" class="text-inner-tspan" font-weight="normal">Metrics</tspan></tspan><tspan class="text-outer-tspan row" x="0" y="1em" dy="1.1em"><tspan font-style="normal" class="text-inner-tspan" font-weight="normal">Processor</tspan></tspan></text></g></g><g><g><svg xmlns="http://www.w3.org/2000/svg" width="80" height="80" viewBox="0 0 256 256"><defs><linearGradient id="IconifyId19ed8b609f268ea2c16" x1="0%" x2="100%" y1="100%" y2="0%"><stop offset="0%" stop-color="#c8511b"/><stop offset="100%" stop-color="#f90"/></linearGradient></defs><path fill="url(#IconifyId19ed8b609f268ea2c16)" d="M0 0h256v256H0z"/><path fill="#fff" d="M89.624 211.2H49.89l43.945-91.853l19.912 40.992zm7.079-100.63a3.22 3.22 0 0 0-2.887-1.805h-.01a3.2 3.2 0 0 0-2.886 1.82L41.913 213.022a3.203 3.203 0 0 0 2.893 4.58l46.848-.001a3.21 3.21 0 0 0 2.9-1.83l25.65-54.08a3.18 3.18 0 0 0-.016-2.762zM207.985 211.2h-39.477L105.174 78.624a3.21 3.21 0 0 0-2.897-1.824h-25.83l.03-32h50.626l63.042 132.573a3.21 3.21 0 0 0 2.897 1.827h14.943zm3.208-38.4h-16.121L132.03 40.227a3.21 3.21 0 0 0-2.9-1.827H73.273a3.206 3.206 0 0 0-3.208 3.197l-.035 38.4c0 .851.333 1.664.94 2.265c.6.602 1.414.938 2.267.938h27.017l63.337 132.576a3.2 3.2 0 0 0 2.893 1.824h44.709a3.203 3.203 0 0 0 3.207-3.2V176c0-1.766-1.434-3.2-3.207-3.2"/></svg></g></g></g><g id="my-svg-service-s3metrics" class="architecture-service" transform="translate(779.2875299463676,599.7500832658872)"><g dy="1em" alignment-baseline="middle" dominant-baseline="middle" text-anchor="middle" transform="translate(40, 80)"><g><rect class="background" style="stroke: none"/><text y="-10.1" style=""><tspan class="text-outer-tspan row" x="0" y="-0.1em" dy="1.1em"><tspan font-style="normal" class="text-inner-tspan" font-weight="normal">S3</tspan><tspan font-style="normal" class="text-inner-tspan" font-weight="normal"> Metrics</tspan></tspan></text></g></g><g><g><svg xmlns="http://www.w3.org/2000/svg" width="80" height="80" viewBox="0 0 256 256"><defs><linearGradient id="IconifyId19ed8b609f268ea2c17" x1="0%" x2="100%" y1="100%" y2="0%"><stop offset="0%" stop-color="#1b660f"/><stop offset="100%" stop-color="#6cae3e"/></linearGradient></defs><path fill="url(#IconifyId19ed8b609f268ea2c17)" d="M0 0h256v256H0z"/><path fill="#fff" d="m194.675 137.256l1.229-8.652c11.33 6.787 11.478 9.59 11.475 9.667c-.02.016-1.952 1.629-12.704-1.015m-6.218-1.728c-19.584-5.926-46.857-18.438-57.894-23.654c0-.045.013-.086.013-.131c0-4.24-3.45-7.69-7.693-7.69c-4.237 0-7.687 3.45-7.687 7.69s3.45 7.69 7.687 7.69c1.862 0 3.552-.695 4.886-1.8c12.986 6.148 40.048 18.478 59.776 24.302l-7.801 55.059q-.033.225-.032.451c0 4.848-21.463 13.754-56.532 13.754c-35.44 0-57.13-8.906-57.13-13.754q0-.22-.028-.435l-16.3-119.062c14.108 9.712 44.454 14.85 73.478 14.85c28.979 0 59.273-5.12 73.41-14.802zM48 65.528c.23-4.21 24.428-20.73 75.2-20.73c50.764 0 74.966 16.516 75.2 20.73v1.437c-2.784 9.443-34.144 19.434-75.2 19.434c-41.127 0-72.503-10.023-75.2-19.479zm156.8.07c0-11.087-31.79-27.2-81.6-27.2c-49.812 0-81.6 16.113-81.6 27.2l.3 2.414l17.754 129.676c.426 14.503 39.1 19.91 63.526 19.91c30.31 0 62.512-6.969 62.928-19.9l7.668-54.07c4.265 1.02 7.776 1.542 10.595 1.542c3.785 0 6.345-.925 7.897-2.774c1.274-1.517 1.76-3.354 1.396-5.31c-.83-4.428-6.087-9.202-16.794-15.311l7.603-53.639z"/></svg></g></g></g><g id="my-svg-service-glue" class="architecture-service" transform="translate(957.21040488941,599.7500832658872)"><g dy="1em" alignment-baseline="middle" dominant-baseline="middle" text-anchor="middle" transform="translate(40, 80)"><g><rect class="background" style="stroke: none"/><text y="-10.1" style=""><tspan class="text-outer-tspan row" x="0" y="-0.1em" dy="1.1em"><tspan font-style="normal" class="text-inner-tspan" font-weight="normal">Glue</tspan><tspan font-style="normal" class="text-inner-tspan" font-weight="normal"> Database</tspan></tspan></text></g></g><g><g><svg xmlns="http://www.w3.org/2000/svg" width="80" height="80" viewBox="0 0 256 256"><defs><linearGradient id="IconifyId19ed8b609f268ea2c18" x1="0%" x2="100%" y1="100%" y2="0%"><stop offset="0%" stop-color="#4d27a8"/><stop offset="100%" stop-color="#a166ff"/></linearGradient></defs><path fill="url(#IconifyId19ed8b609f268ea2c18)" d="M0 0h256v256H0z"/><path fill="#fff" d="M105.6 73.6h6.4v-6.4h-6.4zm-6.4 3.2V64a3.2 3.2 0 0 1 3.2-3.2h12.8a3.2 3.2 0 0 1 3.2 3.2v12.8a3.2 3.2 0 0 1-3.2 3.2h-12.8a3.2 3.2 0 0 1-3.2-3.2m32-22.4h6.4V48h-6.4zm-6.4 3.2V44.8a3.2 3.2 0 0 1 3.2-3.2h12.8a3.2 3.2 0 0 1 3.2 3.2v12.8a3.2 3.2 0 0 1-3.2 3.2H128a3.2 3.2 0 0 1-3.2-3.2m12.8 28.8h6.4V80h-6.4zm-3.2-12.8h12.8a3.2 3.2 0 0 1 3.2 3.2v12.8a3.2 3.2 0 0 1-3.2 3.2h-12.8a3.2 3.2 0 0 1-3.2-3.2V76.8a3.2 3.2 0 0 1 3.2-3.2m-6.4 33.6c-5.635 0-26.067-.24-39.357-3.507l32.464 51.398c.32.512.493 1.104.493 1.709v7.286c4.493 1.303 8.643 1.316 12.8.052V156.8c0-.605.173-1.197.493-1.709l32.464-51.398c-13.29 3.267-33.722 3.507-39.357 3.507m-50.387-8.986c-.509-.742-.813-1.542-.813-2.416c0-9.104 30.029-10.787 47.93-10.982l.067 6.4c-21.99.24-35.427 2.749-40.163 4.618c5.024 2.099 19.824 4.966 43.366 4.966c23.482 0 38.262-2.851 43.325-4.947c-2.067-.835-6.349-2.07-14.912-3.117l.774-6.352c19.399 2.368 22.013 6.086 22.013 9.414c0 .874-.304 1.674-.813 2.416L140.8 157.728v8.672a3.2 3.2 0 0 1-2.006 2.97c-3.492 1.401-6.999 2.099-10.583 2.099c-3.552 0-7.174-.688-10.918-2.067a3.2 3.2 0 0 1-2.093-3.002v-8.672zm72.544 92.56a3.2 3.2 0 0 1-.695 3.488l-19.2 19.2a3.2 3.2 0 0 1-2.262.938a3.2 3.2 0 0 1-2.262-.938l-19.2-19.2a3.2 3.2 0 0 1 2.262-5.462h9.6v-9.6h6.4V192a3.2 3.2 0 0 1-3.2 3.2h-5.075L128 206.675l11.475-11.475H134.4a3.2 3.2 0 0 1-3.2-3.2v-12.8h6.4v9.6h9.6c1.293 0 2.464.78 2.957 1.974"/></svg></g></g></g><g id="my-svg-service-metrics-aggregator" class="architecture-service" transform="translate(1140.833620784811,599.7500832658872)"><g dy="1em" alignment-baseline="middle" dominant-baseline="middle" text-anchor="middle" transform="translate(40, 80)"><g><rect class="background" style="stroke: none"/><text y="-10.1" style=""><tspan class="text-outer-tspan row" x="0" y="-0.1em" dy="1.1em"><tspan font-style="normal" class="text-inner-tspan" font-weight="normal">Metrics</tspan></tspan><tspan class="text-outer-tspan row" x="0" y="1em" dy="1.1em"><tspan font-style="normal" class="text-inner-tspan" font-weight="normal">Aggregator</tspan></tspan></text></g></g><g><g><svg xmlns="http://www.w3.org/2000/svg" width="80" height="80" viewBox="0 0 256 256"><defs><linearGradient id="IconifyId19ed8b609f268ea2c19" x1="0%" x2="100%" y1="100%" y2="0%"><stop offset="0%" stop-color="#c8511b"/><stop offset="100%" stop-color="#f90"/></linearGradient></defs><path fill="url(#IconifyId19ed8b609f268ea2c19)" d="M0 0h256v256H0z"/><path fill="#fff" d="M89.624 211.2H49.89l43.945-91.853l19.912 40.992zm7.079-100.63a3.22 3.22 0 0 0-2.887-1.805h-.01a3.2 3.2 0 0 0-2.886 1.82L41.913 213.022a3.203 3.203 0 0 0 2.893 4.58l46.848-.001a3.21 3.21 0 0 0 2.9-1.83l25.65-54.08a3.18 3.18 0 0 0-.016-2.762zM207.985 211.2h-39.477L105.174 78.624a3.21 3.21 0 0 0-2.897-1.824h-25.83l.03-32h50.626l63.042 132.573a3.21 3.21 0 0 0 2.897 1.827h14.943zm3.208-38.4h-16.121L132.03 40.227a3.21 3.21 0 0 0-2.9-1.827H73.273a3.206 3.206 0 0 0-3.208 3.197l-.035 38.4c0 .851.333 1.664.94 2.265c.6.602 1.414.938 2.267.938h27.017l63.337 132.576a3.2 3.2 0 0 0 2.893 1.824h44.709a3.203 3.203 0 0 0 3.207-3.2V176c0-1.766-1.434-3.2-3.207-3.2"/></svg></g></g></g><g id="my-svg-service-s3aggregated" class="architecture-service" transform="translate(1332.3684980165967,599.7500832658872)"><g dy="1em" alignment-baseline="middle" dominant-baseline="middle" text-anchor="middle" transform="translate(40, 80)"><g><rect class="background" style="stroke: none"/><text y="-10.1" style=""><tspan class="text-outer-tspan row" x="0" y="-0.1em" dy="1.1em"><tspan font-style="normal" class="text-inner-tspan" font-weight="normal">S3</tspan><tspan font-style="normal" class="text-inner-tspan" font-weight="normal"> Aggregated</tspan></tspan></text></g></g><g><g><svg xmlns="http://www.w3.org/2000/svg" width="80" height="80" viewBox="0 0 256 256"><defs><linearGradient id="IconifyId19ed8b609f268ea2c20" x1="0%" x2="100%" y1="100%" y2="0%"><stop offset="0%" stop-color="#1b660f"/><stop offset="100%" stop-color="#6cae3e"/></linearGradient></defs><path fill="url(#IconifyId19ed8b609f268ea2c20)" d="M0 0h256v256H0z"/><path fill="#fff" d="m194.675 137.256l1.229-8.652c11.33 6.787 11.478 9.59 11.475 9.667c-.02.016-1.952 1.629-12.704-1.015m-6.218-1.728c-19.584-5.926-46.857-18.438-57.894-23.654c0-.045.013-.086.013-.131c0-4.24-3.45-7.69-7.693-7.69c-4.237 0-7.687 3.45-7.687 7.69s3.45 7.69 7.687 7.69c1.862 0 3.552-.695 4.886-1.8c12.986 6.148 40.048 18.478 59.776 24.302l-7.801 55.059q-.033.225-.032.451c0 4.848-21.463 13.754-56.532 13.754c-35.44 0-57.13-8.906-57.13-13.754q0-.22-.028-.435l-16.3-119.062c14.108 9.712 44.454 14.85 73.478 14.85c28.979 0 59.273-5.12 73.41-14.802zM48 65.528c.23-4.21 24.428-20.73 75.2-20.73c50.764 0 74.966 16.516 75.2 20.73v1.437c-2.784 9.443-34.144 19.434-75.2 19.434c-41.127 0-72.503-10.023-75.2-19.479zm156.8.07c0-11.087-31.79-27.2-81.6-27.2c-49.812 0-81.6 16.113-81.6 27.2l.3 2.414l17.754 129.676c.426 14.503 39.1 19.91 63.526 19.91c30.31 0 62.512-6.969 62.928-19.9l7.668-54.07c4.265 1.02 7.776 1.542 10.595 1.542c3.785 0 6.345-.925 7.897-2.774c1.274-1.517 1.76-3.354 1.396-5.31c-.83-4.428-6.087-9.202-16.794-15.311l7.603-53.639z"/></svg></g></g></g><g class="architecture-junction" transform="translate(-155.0738810582447,208.69834777895528)"><g><rect id="my-svg-node-processing-junc1" fill-opacity="0" width="80" height="80"/></g></g><g class="architecture-junction" transform="translate(429.2199384527383,479.68123562999017)"><g><rect id="my-svg-node-extract-junc1" fill-opacity="0" width="80" height="80"/></g></g></g><g class="architecture-groups"><rect id="my-svg-group-admin" x="-1383.3684980165967" y="-404.916097320969" width="194" height="388.7236215131595" class="node-bkg"/><g><g transform="translate(-1382.3684980165967, -403.916097320969)"><g><svg xmlns="http://www.w3.org/2000/svg" width="30" height="30" viewBox="0 0 256 256"><defs><linearGradient id="IconifyId19ed8b609f268ea2c21" x1="0%" x2="100%" y1="100%" y2="0%"><stop offset="0%" stop-color="#4d27a8"/><stop offset="100%" stop-color="#a166ff"/></linearGradient></defs><path fill="url(#IconifyId19ed8b609f268ea2c21)" d="M0 0h256v256H0z"/><path fill="#fff" d="M176.39 166.794c0-5.293-4.307-9.6-9.6-9.6s-9.6 4.307-9.6 9.6s4.308 9.6 9.6 9.6c5.293 0 9.6-4.308 9.6-9.6m6.4 0c0 8.822-7.177 16-16 16c-8.822 0-16-7.178-16-16c0-8.823 7.178-16 16-16c8.823 0 16 7.177 16 16m-85.536-46.18c0-5.292-4.307-9.6-9.6-9.6c-5.296 0-9.6 4.308-9.6 9.6c0 5.293 4.304 9.6 9.6 9.6c5.293 0 9.6-4.307 9.6-9.6m6.4 0c0 8.823-7.18 16-16 16c-8.822 0-16-7.177-16-16c0-8.822 7.178-16 16-16c8.82 0 16 7.178 16 16m23.482-50.192c0 5.293 4.307 9.6 9.6 9.6c5.296 0 9.6-4.307 9.6-9.6c0-5.296-4.304-9.6-9.6-9.6c-5.293 0-9.6 4.304-9.6 9.6m-6.4 0c0-8.822 7.18-16 16-16c8.822 0 16 7.178 16 16c0 8.823-7.178 16-16 16c-8.82 0-16-7.177-16-16M211.2 128c0-29.674-15.91-57.126-41.562-71.971c-4.598.928-9.046 2.198-14.595 4.205l-2.176-6.02a131 131 0 0 1 7.984-2.61A83 83 0 0 0 128 44.8c-5.405 0-10.723.56-15.92 1.574c3.763 2.202 7.1 4.397 10.342 6.855l-3.868 5.097c-4.57-3.462-9.306-6.396-15.524-9.654c-31.42 9.882-54.05 37.594-57.644 70.138c6.588-1.335 12.915-2.061 19.939-2.234l.157 6.397c-7.36.182-13.684.963-20.596 2.483c-.028.848-.086 1.706-.086 2.544c0 27.706 13.706 53.235 36.246 68.63c-4.01-11.939-6.006-23.222-6.006-34.243c0-6.285 1.082-11.446 2.224-16.909c.266-1.264.534-2.55.797-3.884l6.281 1.238c-.268 1.357-.544 2.672-.812 3.962c-1.12 5.35-2.09 9.97-2.09 15.593c0 12.506 2.746 25.437 8.333 39.479c11.9 6.179 24.752 9.334 38.227 9.334c8.82 0 17.427-1.408 25.638-4.115c3.223-6.359 5.613-12.359 7.61-19.248l6.147 1.782a114 114 0 0 1-5.126 14.147c5.165-2.323 10.051-5.196 14.637-8.55c-1.104-2.707-2.288-5.398-3.597-8.02l5.725-2.863c1.113 2.227 2.134 4.505 3.11 6.797C200.656 175.28 211.2 152.512 211.2 128m6.4 0c0 27.926-12.691 53.757-34.813 70.877c-5.478 4.256-11.42 7.789-17.702 10.633c-2.666 1.21-5.38 2.33-8.17 3.27c-9.216 3.198-18.953 4.82-28.915 4.82c-14.72 0-29.338-3.667-42.278-10.605C56.534 191.38 38.4 161.11 38.4 128c0-2.195.058-3.866.189-5.411c2.179-37.389 27.83-69.75 63.814-80.458C110.598 39.658 119.216 38.4 128 38.4c15.386 0 30.525 3.962 43.789 11.453C200.042 65.68 217.6 95.629 217.6 128m-98.195-46.518l-4.205-4.823c-7.174 6.26-12.755 12.906-19.274 22.944l5.37 3.485c6.17-9.507 11.418-15.766 18.109-21.606m-9.725 41.484l-2.08 6.052c14.698 5.046 27.52 13.097 40.349 25.337l4.419-4.63c-13.523-12.9-27.088-21.402-42.688-26.759m42.787-37.628c12.007 18.31 18.768 38.41 20.093 59.744l-6.387.396c-1.258-20.21-7.667-39.264-19.053-56.63z"/></svg></g></g><g dy="1em" alignment-baseline="middle" dominant-baseline="start" text-anchor="start" transform="translate(-1349.3684980165967, -397.916097320969)"><g><rect class="background" style="stroke: none"/><text y="-10.1" style=""><tspan class="text-outer-tspan row" x="0" y="-0.1em" dy="1.1em"><tspan font-style="normal" class="text-inner-tspan" font-weight="normal">Admin</tspan><tspan font-style="normal" class="text-inner-tspan" font-weight="normal"> Console</tspan></tspan></text></g></g></g><rect id="my-svg-group-api" x="-1109.839965653401" y="-608.2500832658872" width="853.6545327891329" height="385.33398594491814" class="node-bkg"/><g><g transform="translate(-1108.839965653401, -607.2500832658872)"><g><svg xmlns="http://www.w3.org/2000/svg" width="30" height="30" viewBox="0 0 256 256"><defs><linearGradient id="IconifyId19ed8b609f268ea2c22" x1="0%" x2="100%" y1="100%" y2="0%"><stop offset="0%" stop-color="#4d27a8"/><stop offset="100%" stop-color="#a166ff"/></linearGradient></defs><path fill="url(#IconifyId19ed8b609f268ea2c22)" d="M0 0h256v256H0z"/><path fill="#fff" d="m195.2 132.39l-17.6-7.04v63.843c5.14-.512 9.283-2.202 12.227-5.19c5.44-5.53 5.376-13.636 5.373-13.716zm-24 56.844V125.35l-17.6 7.04v37.834c.022.662.749 17.142 17.6 19.011m30.4-19.011c.01.362.17 10.71-7.152 18.208c-4.787 4.906-11.536 7.392-20.048 7.392c-21.034 0-26.992-16.698-27.2-25.523v-40.077c0-1.309.797-2.486 2.013-2.973l24-9.6a3.2 3.2 0 0 1 2.374 0l24 9.6a3.2 3.2 0 0 1 2.013 2.973zm9.603-6.291l-.003-42.743l-36.8-14.72l-36.8 14.72v42.634c-.006.291-.432 19.93 11.309 32.013c6.182 6.361 14.758 9.587 25.491 9.587c10.806 0 19.424-3.248 25.613-9.651c11.725-12.135 11.197-31.645 11.19-31.84m-6.589 36.285c-7.44 7.702-17.606 11.606-30.214 11.606c-12.547 0-22.678-3.891-30.112-11.565c-13.629-14.057-13.117-35.625-13.088-36.534v-44.701c0-1.309.797-2.486 2.013-2.973l40-16a3.2 3.2 0 0 1 2.374 0l40 16a3.2 3.2 0 0 1 2.013 2.973v44.8c.029.8.605 22.33-12.986 36.394M73.776 151.023H121.6v6.4H73.776c-19.45 0-34.298-12.966-35.3-30.832c-.07-.73-.076-1.58-.076-2.432c0-21.98 15.37-30.074 24.333-32.922a50 50 0 0 1-.096-3.113c0-17.45 12.448-35.706 28.95-42.464c19.38-7.936 39.811-4.093 54.637 10.262c4.995 4.867 8.803 10.064 11.558 15.789c3.86-3.312 8.519-5.091 13.51-5.091c10.577 0 21.764 8.3 23.687 24.201c6.986 1.76 15.754 5.498 21.943 13.434l-5.044 3.936c-5.702-7.315-14.307-10.362-20.518-11.635a3.19 3.19 0 0 1-2.554-2.944c-.835-14.147-9.664-20.592-17.513-20.592c-4.679 0-8.826 2.208-11.997 6.384a3.16 3.16 0 0 1-3.024 1.232a3.2 3.2 0 0 1-2.528-2.064c-2.454-6.688-6.371-12.595-11.978-18.058c-12.94-12.525-30.803-15.869-47.753-8.931c-14.237 5.83-24.976 21.54-24.976 36.54c0 1.732.099 3.444.3 5.086a3.204 3.204 0 0 1-2.409 3.49c-8.262 2.046-22.128 8.337-22.128 27.46c0 .646-.006 1.296.058 1.946c.812 14.49 12.972 24.918 28.918 24.918"/></svg></g></g><g dy="1em" alignment-baseline="middle" dominant-baseline="start" text-anchor="start" transform="translate(-1075.839965653401, -601.2500832658872)"><g><rect class="background" style="stroke: none"/><text y="-10.1" style=""><tspan class="text-outer-tspan row" x="0" y="-0.1em" dy="1.1em"><tspan font-style="normal" class="text-inner-tspan" font-weight="normal">API</tspan><tspan font-style="normal" class="text-inner-tspan" font-weight="normal"> Layer</tspan></tspan></text></g></g></g><rect id="my-svg-group-processing" x="-649.4235892113951" y="-190.16676911136184" width="865.8704585724824" height="382.9869591365031" class="node-bkg"/><g><g transform="translate(-648.4235892113951, -189.16676911136184)"><g><svg xmlns="http://www.w3.org/2000/svg" width="30" height="30" viewBox="0 0 256 256"><defs><linearGradient id="IconifyId19ed8b609f268ea2c23" x1="0%" x2="100%" y1="100%" y2="0%"><stop offset="0%" stop-color="#4d27a8"/><stop offset="100%" stop-color="#a166ff"/></linearGradient></defs><path fill="url(#IconifyId19ed8b609f268ea2c23)" d="M0 0h256v256H0z"/><path fill="#fff" d="m195.2 132.39l-17.6-7.04v63.843c5.14-.512 9.283-2.202 12.227-5.19c5.44-5.53 5.376-13.636 5.373-13.716zm-24 56.844V125.35l-17.6 7.04v37.834c.022.662.749 17.142 17.6 19.011m30.4-19.011c.01.362.17 10.71-7.152 18.208c-4.787 4.906-11.536 7.392-20.048 7.392c-21.034 0-26.992-16.698-27.2-25.523v-40.077c0-1.309.797-2.486 2.013-2.973l24-9.6a3.2 3.2 0 0 1 2.374 0l24 9.6a3.2 3.2 0 0 1 2.013 2.973zm9.603-6.291l-.003-42.743l-36.8-14.72l-36.8 14.72v42.634c-.006.291-.432 19.93 11.309 32.013c6.182 6.361 14.758 9.587 25.491 9.587c10.806 0 19.424-3.248 25.613-9.651c11.725-12.135 11.197-31.645 11.19-31.84m-6.589 36.285c-7.44 7.702-17.606 11.606-30.214 11.606c-12.547 0-22.678-3.891-30.112-11.565c-13.629-14.057-13.117-35.625-13.088-36.534v-44.701c0-1.309.797-2.486 2.013-2.973l40-16a3.2 3.2 0 0 1 2.374 0l40 16a3.2 3.2 0 0 1 2.013 2.973v44.8c.029.8.605 22.33-12.986 36.394M73.776 151.023H121.6v6.4H73.776c-19.45 0-34.298-12.966-35.3-30.832c-.07-.73-.076-1.58-.076-2.432c0-21.98 15.37-30.074 24.333-32.922a50 50 0 0 1-.096-3.113c0-17.45 12.448-35.706 28.95-42.464c19.38-7.936 39.811-4.093 54.637 10.262c4.995 4.867 8.803 10.064 11.558 15.789c3.86-3.312 8.519-5.091 13.51-5.091c10.577 0 21.764 8.3 23.687 24.201c6.986 1.76 15.754 5.498 21.943 13.434l-5.044 3.936c-5.702-7.315-14.307-10.362-20.518-11.635a3.19 3.19 0 0 1-2.554-2.944c-.835-14.147-9.664-20.592-17.513-20.592c-4.679 0-8.826 2.208-11.997 6.384a3.16 3.16 0 0 1-3.024 1.232a3.2 3.2 0 0 1-2.528-2.064c-2.454-6.688-6.371-12.595-11.978-18.058c-12.94-12.525-30.803-15.869-47.753-8.931c-14.237 5.83-24.976 21.54-24.976 36.54c0 1.732.099 3.444.3 5.086a3.204 3.204 0 0 1-2.409 3.49c-8.262 2.046-22.128 8.337-22.128 27.46c0 .646-.006 1.296.058 1.946c.812 14.49 12.972 24.918 28.918 24.918"/></svg></g></g><g dy="1em" alignment-baseline="middle" dominant-baseline="start" text-anchor="start" transform="translate(-615.4235892113951, -183.16676911136184)"><g><rect class="background" style="stroke: none"/><text y="-10.1" style=""><tspan class="text-outer-tspan row" x="0" y="-0.1em" dy="1.1em"><tspan font-style="normal" class="text-inner-tspan" font-weight="normal">Document</tspan><tspan font-style="normal" class="text-inner-tspan" font-weight="normal"> Processing</tspan></tspan></text></g></g></g><rect id="my-svg-group-data-extraction" x="-262.07388105824464" y="286.1983477789553" width="1058.6431691317207" height="182" class="node-bkg"/><g><g transform="translate(-261.07388105824464, 287.1983477789553)"><g><svg xmlns="http://www.w3.org/2000/svg" width="30" height="30" viewBox="0 0 256 256"><defs><linearGradient id="IconifyId19ed8b609f268ea2c24" x1="0%" x2="100%" y1="100%" y2="0%"><stop offset="0%" stop-color="#4d27a8"/><stop offset="100%" stop-color="#a166ff"/></linearGradient></defs><path fill="url(#IconifyId19ed8b609f268ea2c24)" d="M0 0h256v256H0z"/><path fill="#fff" d="m195.2 132.39l-17.6-7.04v63.843c5.14-.512 9.283-2.202 12.227-5.19c5.44-5.53 5.376-13.636 5.373-13.716zm-24 56.844V125.35l-17.6 7.04v37.834c.022.662.749 17.142 17.6 19.011m30.4-19.011c.01.362.17 10.71-7.152 18.208c-4.787 4.906-11.536 7.392-20.048 7.392c-21.034 0-26.992-16.698-27.2-25.523v-40.077c0-1.309.797-2.486 2.013-2.973l24-9.6a3.2 3.2 0 0 1 2.374 0l24 9.6a3.2 3.2 0 0 1 2.013 2.973zm9.603-6.291l-.003-42.743l-36.8-14.72l-36.8 14.72v42.634c-.006.291-.432 19.93 11.309 32.013c6.182 6.361 14.758 9.587 25.491 9.587c10.806 0 19.424-3.248 25.613-9.651c11.725-12.135 11.197-31.645 11.19-31.84m-6.589 36.285c-7.44 7.702-17.606 11.606-30.214 11.606c-12.547 0-22.678-3.891-30.112-11.565c-13.629-14.057-13.117-35.625-13.088-36.534v-44.701c0-1.309.797-2.486 2.013-2.973l40-16a3.2 3.2 0 0 1 2.374 0l40 16a3.2 3.2 0 0 1 2.013 2.973v44.8c.029.8.605 22.33-12.986 36.394M73.776 151.023H121.6v6.4H73.776c-19.45 0-34.298-12.966-35.3-30.832c-.07-.73-.076-1.58-.076-2.432c0-21.98 15.37-30.074 24.333-32.922a50 50 0 0 1-.096-3.113c0-17.45 12.448-35.706 28.95-42.464c19.38-7.936 39.811-4.093 54.637 10.262c4.995 4.867 8.803 10.064 11.558 15.789c3.86-3.312 8.519-5.091 13.51-5.091c10.577 0 21.764 8.3 23.687 24.201c6.986 1.76 15.754 5.498 21.943 13.434l-5.044 3.936c-5.702-7.315-14.307-10.362-20.518-11.635a3.19 3.19 0 0 1-2.554-2.944c-.835-14.147-9.664-20.592-17.513-20.592c-4.679 0-8.826 2.208-11.997 6.384a3.16 3.16 0 0 1-3.024 1.232a3.2 3.2 0 0 1-2.528-2.064c-2.454-6.688-6.371-12.595-11.978-18.058c-12.94-12.525-30.803-15.869-47.753-8.931c-14.237 5.83-24.976 21.54-24.976 36.54c0 1.732.099 3.444.3 5.086a3.204 3.204 0 0 1-2.409 3.49c-8.262 2.046-22.128 8.337-22.128 27.46c0 .646-.006 1.296.058 1.946c.812 14.49 12.972 24.918 28.918 24.918"/></svg></g></g><g dy="1em" alignment-baseline="middle" dominant-baseline="start" text-anchor="start" transform="translate(-228.07388105824464, 293.1983477789553)"><g><rect class="background" style="stroke: none"/><text y="-10.1" style=""><tspan class="text-outer-tspan row" x="0" y="-0.1em" dy="1.1em"><tspan font-style="normal" class="text-inner-tspan" font-weight="normal">Data</tspan><tspan font-style="normal" class="text-inner-tspan" font-weight="normal"> Extraction</tspan></tspan></text></g></g></g><rect id="my-svg-group-metrics" x="380.21993845273823" y="557.2500832658872" width="1095.1485595638585" height="182" class="node-bkg"/><g><g transform="translate(381.21993845273823, 558.2500832658872)"><g><svg xmlns="http://www.w3.org/2000/svg" width="30" height="30" viewBox="0 0 256 256"><defs><linearGradient id="IconifyId19ed8b609f268ea2c25" x1="0%" x2="100%" y1="100%" y2="0%"><stop offset="0%" stop-color="#4d27a8"/><stop offset="100%" stop-color="#a166ff"/></linearGradient></defs><path fill="url(#IconifyId19ed8b609f268ea2c25)" d="M0 0h256v256H0z"/><path fill="#fff" d="m195.2 132.39l-17.6-7.04v63.843c5.14-.512 9.283-2.202 12.227-5.19c5.44-5.53 5.376-13.636 5.373-13.716zm-24 56.844V125.35l-17.6 7.04v37.834c.022.662.749 17.142 17.6 19.011m30.4-19.011c.01.362.17 10.71-7.152 18.208c-4.787 4.906-11.536 7.392-20.048 7.392c-21.034 0-26.992-16.698-27.2-25.523v-40.077c0-1.309.797-2.486 2.013-2.973l24-9.6a3.2 3.2 0 0 1 2.374 0l24 9.6a3.2 3.2 0 0 1 2.013 2.973zm9.603-6.291l-.003-42.743l-36.8-14.72l-36.8 14.72v42.634c-.006.291-.432 19.93 11.309 32.013c6.182 6.361 14.758 9.587 25.491 9.587c10.806 0 19.424-3.248 25.613-9.651c11.725-12.135 11.197-31.645 11.19-31.84m-6.589 36.285c-7.44 7.702-17.606 11.606-30.214 11.606c-12.547 0-22.678-3.891-30.112-11.565c-13.629-14.057-13.117-35.625-13.088-36.534v-44.701c0-1.309.797-2.486 2.013-2.973l40-16a3.2 3.2 0 0 1 2.374 0l40 16a3.2 3.2 0 0 1 2.013 2.973v44.8c.029.8.605 22.33-12.986 36.394M73.776 151.023H121.6v6.4H73.776c-19.45 0-34.298-12.966-35.3-30.832c-.07-.73-.076-1.58-.076-2.432c0-21.98 15.37-30.074 24.333-32.922a50 50 0 0 1-.096-3.113c0-17.45 12.448-35.706 28.95-42.464c19.38-7.936 39.811-4.093 54.637 10.262c4.995 4.867 8.803 10.064 11.558 15.789c3.86-3.312 8.519-5.091 13.51-5.091c10.577 0 21.764 8.3 23.687 24.201c6.986 1.76 15.754 5.498 21.943 13.434l-5.044 3.936c-5.702-7.315-14.307-10.362-20.518-11.635a3.19 3.19 0 0 1-2.554-2.944c-.835-14.147-9.664-20.592-17.513-20.592c-4.679 0-8.826 2.208-11.997 6.384a3.16 3.16 0 0 1-3.024 1.232a3.2 3.2 0 0 1-2.528-2.064c-2.454-6.688-6.371-12.595-11.978-18.058c-12.94-12.525-30.803-15.869-47.753-8.931c-14.237 5.83-24.976 21.54-24.976 36.54c0 1.732.099 3.444.3 5.086a3.204 3.204 0 0 1-2.409 3.49c-8.262 2.046-22.128 8.337-22.128 27.46c0 .646-.006 1.296.058 1.946c.812 14.49 12.972 24.918 28.918 24.918"/></svg></g></g><g dy="1em" alignment-baseline="middle" dominant-baseline="start" text-anchor="start" transform="translate(414.21993845273823, 564.2500832658872)"><g><rect class="background" style="stroke: none"/><text y="-10.1" style=""><tspan class="text-outer-tspan row" x="0" y="-0.1em" dy="1.1em"><tspan font-style="normal" class="text-inner-tspan" font-weight="normal">Metrics</tspan><tspan font-style="normal" class="text-inner-tspan" font-weight="normal"> Pipeline</tspan></tspan></text></g></g></g></g></svg>